G04 Layer: TopLayer*
G04 EasyEDA v6.5.1, 2022-03-27 00:49:21*
G04 a67cddfb3fce44daa9051d46cbbcc19f,10*
G04 Gerber Generator version 0.2*
G04 Scale: 100 percent, Rotated: No, Reflected: No *
G04 Dimensions in millimeters *
G04 leading zeros omitted , absolute positions ,4 integer and 5 decimal *
%FSLAX45Y45*%
%MOMM*%

%ADD10C,0.2540*%
%ADD11C,0.7000*%
%ADD12R,1.1000X1.0000*%
%ADD14R,1.0000X1.1000*%
%ADD16R,1.0000X0.8000*%
%ADD17R,2.0000X2.0000*%
%ADD18C,2.0000*%

%LPD*%
G36*
X36068Y25908D02*
G01*
X32207Y26670D01*
X28905Y28905D01*
X26670Y32207D01*
X25908Y36068D01*
X25908Y1663954D01*
X26670Y1667814D01*
X28905Y1671116D01*
X32207Y1673301D01*
X36068Y1674114D01*
X3263950Y1674114D01*
X3267811Y1673301D01*
X3271113Y1671116D01*
X3273348Y1667814D01*
X3274110Y1663954D01*
X3274110Y36068D01*
X3273348Y32207D01*
X3271113Y28905D01*
X3267811Y26670D01*
X3263950Y25908D01*
X2758592Y25908D01*
X2754376Y26822D01*
X2750921Y29464D01*
X2748838Y33274D01*
X2748584Y37592D01*
X2750108Y41656D01*
X2753918Y45110D01*
X2758033Y49225D01*
X2761081Y54102D01*
X2763012Y59588D01*
X2763723Y65887D01*
X2763723Y164744D01*
X2763012Y171094D01*
X2761081Y176530D01*
X2758033Y181457D01*
X2753918Y185521D01*
X2752039Y186740D01*
X2749092Y189534D01*
X2747467Y193294D01*
X2747467Y197358D01*
X2749092Y201117D01*
X2752039Y203911D01*
X2753918Y205130D01*
X2758033Y209194D01*
X2761081Y214121D01*
X2763012Y219557D01*
X2763723Y225907D01*
X2763723Y324764D01*
X2763012Y331063D01*
X2761081Y336550D01*
X2758033Y341426D01*
X2753918Y345541D01*
X2749042Y348589D01*
X2743555Y350520D01*
X2737256Y351231D01*
X2731668Y351231D01*
X2727807Y351993D01*
X2724505Y354177D01*
X2722270Y357479D01*
X2721508Y361391D01*
X2721508Y511809D01*
X2722219Y515467D01*
X2724150Y518668D01*
X2727096Y520903D01*
X2730703Y521919D01*
X2738729Y522732D01*
X2744114Y524611D01*
X2749042Y527710D01*
X2753106Y531774D01*
X2756204Y536702D01*
X2758084Y542137D01*
X2758795Y548487D01*
X2758795Y637336D01*
X2758084Y643636D01*
X2756204Y649122D01*
X2753106Y653999D01*
X2749042Y658114D01*
X2744114Y661162D01*
X2738678Y663092D01*
X2732328Y663803D01*
X2633472Y663803D01*
X2627172Y663092D01*
X2621686Y661162D01*
X2616809Y658114D01*
X2612694Y653999D01*
X2609646Y649122D01*
X2607716Y643636D01*
X2607005Y637336D01*
X2607005Y548487D01*
X2607716Y542137D01*
X2609646Y536702D01*
X2612694Y531774D01*
X2616809Y527710D01*
X2621686Y524611D01*
X2627071Y522732D01*
X2635148Y521919D01*
X2638704Y520903D01*
X2641650Y518668D01*
X2643632Y515467D01*
X2644292Y511809D01*
X2644292Y361391D01*
X2643530Y357479D01*
X2641346Y354177D01*
X2638044Y351993D01*
X2634132Y351231D01*
X2628392Y351231D01*
X2622042Y350520D01*
X2616606Y348589D01*
X2611678Y345541D01*
X2607614Y341426D01*
X2604516Y336550D01*
X2602636Y331063D01*
X2601925Y324764D01*
X2601925Y225907D01*
X2602636Y219557D01*
X2604516Y214121D01*
X2607614Y209194D01*
X2611678Y205130D01*
X2613609Y203911D01*
X2616555Y201117D01*
X2618130Y197358D01*
X2618130Y193294D01*
X2616555Y189534D01*
X2613609Y186740D01*
X2611678Y185521D01*
X2607614Y181457D01*
X2604516Y176530D01*
X2602636Y171145D01*
X2601874Y163068D01*
X2600807Y159512D01*
X2598572Y156514D01*
X2595422Y154584D01*
X2591765Y153924D01*
X1695754Y153924D01*
X1691843Y154686D01*
X1688541Y156870D01*
X1686356Y160172D01*
X1685594Y164084D01*
X1686356Y167944D01*
X1688541Y171246D01*
X1905965Y388620D01*
X1911045Y394868D01*
X1914601Y401523D01*
X1916836Y408736D01*
X1917598Y416763D01*
X1917598Y828141D01*
X1918309Y831799D01*
X1920239Y834948D01*
X1923186Y837234D01*
X1926793Y838250D01*
X1934819Y839012D01*
X1940204Y840943D01*
X1945132Y843991D01*
X1949196Y848106D01*
X1950415Y849985D01*
X1953209Y852932D01*
X1956968Y854506D01*
X1961032Y854506D01*
X1964791Y852932D01*
X1967585Y849985D01*
X1968804Y848106D01*
X1972868Y843991D01*
X1977796Y840943D01*
X1983232Y839012D01*
X1989582Y838301D01*
X2088438Y838301D01*
X2094738Y839012D01*
X2100224Y840943D01*
X2105101Y843991D01*
X2109216Y848106D01*
X2112264Y852982D01*
X2114194Y858469D01*
X2114905Y864768D01*
X2114905Y973632D01*
X2114194Y979932D01*
X2112264Y985418D01*
X2109216Y990295D01*
X2105101Y994410D01*
X2100224Y997508D01*
X2094839Y999388D01*
X2086762Y1000150D01*
X2083206Y1001217D01*
X2080209Y1003452D01*
X2078278Y1006602D01*
X2077618Y1010259D01*
X2077618Y1082294D01*
X2078278Y1085900D01*
X2080158Y1089050D01*
X2083104Y1091336D01*
X2086610Y1092403D01*
X2092045Y1093012D01*
X2097532Y1094943D01*
X2102408Y1097991D01*
X2106523Y1102106D01*
X2109571Y1106982D01*
X2111502Y1112469D01*
X2112213Y1118768D01*
X2112213Y1131417D01*
X2112975Y1135329D01*
X2115210Y1138631D01*
X2118512Y1140815D01*
X2122373Y1141577D01*
X2511856Y1141577D01*
X2515514Y1140917D01*
X2518664Y1138986D01*
X2520899Y1135989D01*
X2521966Y1132433D01*
X2522728Y1124356D01*
X2524607Y1118971D01*
X2527706Y1114094D01*
X2531821Y1109980D01*
X2536698Y1106932D01*
X2542184Y1105001D01*
X2548483Y1104290D01*
X2627325Y1104290D01*
X2632252Y1104849D01*
X2636469Y1104442D01*
X2640126Y1102309D01*
X2642616Y1098905D01*
X2643530Y1094790D01*
X2644089Y843991D01*
X2643428Y840333D01*
X2641498Y837133D01*
X2638552Y834898D01*
X2634945Y833831D01*
X2627071Y833069D01*
X2621686Y831189D01*
X2616809Y828090D01*
X2612694Y824026D01*
X2609646Y819099D01*
X2607716Y813663D01*
X2607005Y807313D01*
X2607005Y718464D01*
X2607716Y712165D01*
X2609646Y706678D01*
X2612694Y701802D01*
X2616809Y697687D01*
X2621686Y694588D01*
X2627172Y692708D01*
X2633472Y691997D01*
X2732328Y691997D01*
X2738678Y692708D01*
X2744114Y694588D01*
X2749042Y697687D01*
X2753106Y701802D01*
X2756204Y706678D01*
X2758084Y712165D01*
X2758795Y718464D01*
X2758795Y807313D01*
X2758084Y813663D01*
X2756204Y819099D01*
X2753106Y824026D01*
X2749042Y828090D01*
X2744114Y831189D01*
X2738729Y833069D01*
X2730500Y833831D01*
X2726944Y834847D01*
X2723997Y837133D01*
X2722016Y840282D01*
X2721305Y843940D01*
X2720746Y1094892D01*
X2721610Y1099058D01*
X2724150Y1102512D01*
X2727807Y1104595D01*
X2732024Y1105001D01*
X2738475Y1104290D01*
X2751531Y1104290D01*
X2751531Y1148842D01*
X2730754Y1148842D01*
X2726893Y1149604D01*
X2723591Y1151839D01*
X2721356Y1155090D01*
X2720594Y1159002D01*
X2720492Y1201369D01*
X2721254Y1205280D01*
X2723489Y1208582D01*
X2726740Y1210767D01*
X2730652Y1211529D01*
X2751531Y1211529D01*
X2751531Y1256131D01*
X2738475Y1256131D01*
X2731668Y1255318D01*
X2727452Y1255776D01*
X2723743Y1257858D01*
X2721254Y1261262D01*
X2720340Y1265428D01*
X2720187Y1335328D01*
X2721051Y1339392D01*
X2723438Y1342796D01*
X2726994Y1344980D01*
X2732582Y1346911D01*
X2737510Y1350010D01*
X2741574Y1354074D01*
X2744673Y1359001D01*
X2746603Y1364437D01*
X2747314Y1370787D01*
X2747314Y1469644D01*
X2746603Y1475943D01*
X2744673Y1481429D01*
X2741574Y1486306D01*
X2737510Y1490421D01*
X2732582Y1493469D01*
X2727147Y1495399D01*
X2720797Y1496110D01*
X2641955Y1496110D01*
X2635656Y1495399D01*
X2630170Y1493469D01*
X2625293Y1490421D01*
X2621178Y1486306D01*
X2618079Y1481429D01*
X2616200Y1476044D01*
X2615438Y1468018D01*
X2614371Y1464411D01*
X2612136Y1461465D01*
X2608986Y1459534D01*
X2605328Y1458823D01*
X2122373Y1458823D01*
X2118461Y1459585D01*
X2115210Y1461820D01*
X2112975Y1465122D01*
X2112213Y1468983D01*
X2112213Y1507032D01*
X2111502Y1513332D01*
X2109571Y1518818D01*
X2106523Y1523695D01*
X2102408Y1527810D01*
X2097532Y1530908D01*
X2092045Y1532788D01*
X2085746Y1533499D01*
X1986889Y1533499D01*
X1980539Y1532788D01*
X1975104Y1530908D01*
X1970176Y1527810D01*
X1966112Y1523695D01*
X1963013Y1518818D01*
X1961134Y1513332D01*
X1960372Y1507032D01*
X1960372Y1398168D01*
X1961134Y1391869D01*
X1963013Y1386382D01*
X1966112Y1381506D01*
X1970176Y1377391D01*
X1975104Y1374343D01*
X1980539Y1372412D01*
X1986889Y1371701D01*
X2085746Y1371701D01*
X2092045Y1372412D01*
X2097532Y1374343D01*
X2102408Y1377391D01*
X2103678Y1378661D01*
X2106930Y1380845D01*
X2110841Y1381607D01*
X2605328Y1381607D01*
X2608986Y1380947D01*
X2612136Y1378966D01*
X2614371Y1376019D01*
X2615438Y1372463D01*
X2616200Y1364386D01*
X2618079Y1359001D01*
X2621178Y1354074D01*
X2625293Y1350010D01*
X2630170Y1346911D01*
X2636164Y1344828D01*
X2639720Y1342694D01*
X2642108Y1339291D01*
X2642971Y1335278D01*
X2643124Y1265732D01*
X2642260Y1261567D01*
X2639771Y1258112D01*
X2636062Y1256030D01*
X2631846Y1255623D01*
X2627325Y1256131D01*
X2548483Y1256131D01*
X2542184Y1255420D01*
X2536698Y1253490D01*
X2531821Y1250391D01*
X2527706Y1246327D01*
X2524607Y1241399D01*
X2522728Y1236014D01*
X2521966Y1227988D01*
X2520899Y1224432D01*
X2518664Y1221435D01*
X2515514Y1219504D01*
X2511856Y1218793D01*
X2122271Y1218793D01*
X2118664Y1219504D01*
X2115515Y1221384D01*
X2113280Y1224330D01*
X2112213Y1227836D01*
X2111502Y1233932D01*
X2109571Y1239418D01*
X2106523Y1244295D01*
X2102408Y1248410D01*
X2097532Y1251508D01*
X2092045Y1253388D01*
X2085746Y1254099D01*
X1986889Y1254099D01*
X1980539Y1253388D01*
X1975104Y1251508D01*
X1970176Y1248410D01*
X1966112Y1244295D01*
X1963013Y1239418D01*
X1961134Y1233932D01*
X1960422Y1227632D01*
X1960422Y1118768D01*
X1961134Y1112469D01*
X1963013Y1106982D01*
X1966112Y1102106D01*
X1970176Y1097991D01*
X1975104Y1094943D01*
X1980539Y1093012D01*
X1986889Y1092301D01*
X1990242Y1092301D01*
X1994103Y1091539D01*
X1997405Y1089304D01*
X1999589Y1086002D01*
X2000402Y1082141D01*
X2000402Y1010259D01*
X1999691Y1006602D01*
X1997760Y1003452D01*
X1994763Y1001217D01*
X1991207Y1000150D01*
X1983181Y999388D01*
X1977796Y997508D01*
X1972868Y994410D01*
X1968804Y990295D01*
X1967585Y988415D01*
X1964791Y985469D01*
X1961032Y983894D01*
X1956968Y983894D01*
X1953209Y985469D01*
X1950415Y988415D01*
X1949196Y990295D01*
X1945132Y994410D01*
X1940204Y997508D01*
X1934768Y999388D01*
X1928418Y1000099D01*
X1829562Y1000099D01*
X1823262Y999388D01*
X1817776Y997508D01*
X1812899Y994410D01*
X1808784Y990295D01*
X1805736Y985418D01*
X1803806Y979932D01*
X1803095Y973632D01*
X1803095Y967994D01*
X1802333Y964082D01*
X1800148Y960780D01*
X1796846Y958596D01*
X1792935Y957834D01*
X1720138Y957834D01*
X1714957Y959002D01*
X1705000Y960678D01*
X1694992Y960678D01*
X1685036Y959002D01*
X1675536Y955751D01*
X1666697Y950976D01*
X1658772Y944778D01*
X1651965Y937412D01*
X1646478Y928979D01*
X1642414Y919784D01*
X1639976Y910031D01*
X1639112Y899972D01*
X1639976Y889965D01*
X1642414Y880211D01*
X1646478Y871016D01*
X1651965Y862584D01*
X1658772Y855218D01*
X1666697Y849020D01*
X1675536Y844245D01*
X1685036Y840994D01*
X1694992Y839317D01*
X1705000Y839317D01*
X1714957Y840994D01*
X1724456Y844245D01*
X1733296Y849020D01*
X1741220Y855218D01*
X1748028Y862584D01*
X1753514Y871016D01*
X1755089Y874521D01*
X1757273Y877722D01*
X1760524Y879856D01*
X1764385Y880618D01*
X1792935Y880618D01*
X1796846Y879805D01*
X1800148Y877620D01*
X1802333Y874318D01*
X1803095Y870458D01*
X1803095Y864768D01*
X1803806Y858469D01*
X1805736Y852982D01*
X1808784Y848106D01*
X1812899Y843991D01*
X1817776Y840943D01*
X1823212Y839012D01*
X1831238Y838250D01*
X1834794Y837234D01*
X1837740Y834948D01*
X1839722Y831799D01*
X1840382Y828141D01*
X1840382Y436473D01*
X1839620Y432612D01*
X1837436Y429310D01*
X1676247Y268122D01*
X1672945Y265938D01*
X1669084Y265176D01*
X1665173Y265938D01*
X1661871Y268122D01*
X1659686Y271424D01*
X1658924Y275336D01*
X1658924Y324713D01*
X1658213Y331063D01*
X1656283Y336499D01*
X1653235Y341426D01*
X1649120Y345490D01*
X1644243Y348589D01*
X1638757Y350469D01*
X1632457Y351180D01*
X1626768Y351180D01*
X1622907Y351993D01*
X1619605Y354177D01*
X1617370Y357479D01*
X1616608Y361340D01*
X1616608Y511809D01*
X1617319Y515467D01*
X1619250Y518668D01*
X1622196Y520903D01*
X1625803Y521919D01*
X1633829Y522732D01*
X1639214Y524611D01*
X1644142Y527710D01*
X1648206Y531774D01*
X1651304Y536702D01*
X1653184Y542137D01*
X1653895Y548487D01*
X1653895Y637336D01*
X1653184Y643636D01*
X1651304Y649122D01*
X1648206Y653999D01*
X1644142Y658114D01*
X1639214Y661162D01*
X1633778Y663092D01*
X1627428Y663803D01*
X1528572Y663803D01*
X1522272Y663092D01*
X1516786Y661162D01*
X1511909Y658114D01*
X1507794Y653999D01*
X1504746Y649122D01*
X1502816Y643636D01*
X1502105Y637336D01*
X1502105Y548487D01*
X1502816Y542137D01*
X1504746Y536702D01*
X1507794Y531774D01*
X1511909Y527710D01*
X1516786Y524611D01*
X1522171Y522732D01*
X1530248Y521919D01*
X1533804Y520903D01*
X1536750Y518668D01*
X1538732Y515467D01*
X1539392Y511809D01*
X1539392Y361340D01*
X1538630Y357479D01*
X1536446Y354177D01*
X1533144Y351993D01*
X1529232Y351180D01*
X1523593Y351180D01*
X1517243Y350469D01*
X1511808Y348589D01*
X1506880Y345490D01*
X1502816Y341426D01*
X1499717Y336499D01*
X1497787Y331063D01*
X1497076Y324713D01*
X1497076Y225856D01*
X1497787Y219557D01*
X1499717Y214071D01*
X1502816Y209194D01*
X1506880Y205079D01*
X1508760Y203911D01*
X1511706Y201066D01*
X1513332Y197358D01*
X1513332Y193243D01*
X1511706Y189534D01*
X1508760Y186690D01*
X1506880Y185521D01*
X1502816Y181406D01*
X1499717Y176530D01*
X1497787Y171043D01*
X1497076Y164744D01*
X1497076Y65887D01*
X1497787Y59537D01*
X1499717Y54102D01*
X1502816Y49174D01*
X1510690Y41656D01*
X1512214Y37592D01*
X1511909Y33274D01*
X1509877Y29464D01*
X1506423Y26822D01*
X1502156Y25908D01*
G37*

%LPC*%
G36*
X199898Y47091D02*
G01*
X215087Y48006D01*
X230022Y50749D01*
X244551Y55270D01*
X258419Y61518D01*
X271424Y69392D01*
X283362Y78740D01*
X294132Y89509D01*
X303479Y101447D01*
X311353Y114452D01*
X317652Y128422D01*
X319887Y131572D01*
X323088Y133654D01*
X326898Y134416D01*
X472490Y134416D01*
X480517Y135178D01*
X487781Y137363D01*
X494436Y140919D01*
X500684Y146050D01*
X1033475Y678840D01*
X1038555Y685088D01*
X1042111Y691743D01*
X1044346Y698957D01*
X1045108Y706983D01*
X1045108Y1134160D01*
X1045870Y1138072D01*
X1048105Y1141323D01*
X1051407Y1143558D01*
X1055268Y1144320D01*
X1060856Y1144320D01*
X1067155Y1145032D01*
X1072642Y1146962D01*
X1077518Y1150010D01*
X1081633Y1154125D01*
X1084681Y1159002D01*
X1086561Y1164386D01*
X1087374Y1172413D01*
X1088390Y1175969D01*
X1090676Y1178966D01*
X1093825Y1180896D01*
X1097483Y1181608D01*
X1109624Y1181608D01*
X1113485Y1180795D01*
X1116787Y1178610D01*
X1386281Y909116D01*
X1388618Y905459D01*
X1389989Y889965D01*
X1392428Y880211D01*
X1396492Y871016D01*
X1401978Y862584D01*
X1408785Y855218D01*
X1416710Y849020D01*
X1425549Y844245D01*
X1435049Y840994D01*
X1445006Y839317D01*
X1455013Y839317D01*
X1464970Y840994D01*
X1474470Y844245D01*
X1483309Y849020D01*
X1491234Y855218D01*
X1498041Y862584D01*
X1503527Y871016D01*
X1507591Y880211D01*
X1510030Y889965D01*
X1510893Y899972D01*
X1510030Y910031D01*
X1507591Y919784D01*
X1503527Y928979D01*
X1498041Y937412D01*
X1491234Y944778D01*
X1483309Y950976D01*
X1474470Y955751D01*
X1464970Y959002D01*
X1455013Y960678D01*
X1448155Y960678D01*
X1444244Y961440D01*
X1440992Y963625D01*
X1295349Y1109268D01*
X1293063Y1112774D01*
X1292402Y1116888D01*
X1293418Y1120902D01*
X1296009Y1124204D01*
X1299667Y1126185D01*
X1299667Y1166164D01*
X1251356Y1166164D01*
X1248105Y1164386D01*
X1244396Y1163878D01*
X1240790Y1164742D01*
X1237742Y1166876D01*
X1157478Y1247140D01*
X1151229Y1252270D01*
X1144574Y1255826D01*
X1137361Y1258011D01*
X1129334Y1258824D01*
X1097483Y1258824D01*
X1093825Y1259484D01*
X1090676Y1261414D01*
X1088390Y1264412D01*
X1087374Y1267968D01*
X1086561Y1276045D01*
X1084681Y1281430D01*
X1081633Y1286357D01*
X1077518Y1290421D01*
X1075639Y1291640D01*
X1072692Y1294434D01*
X1071067Y1298194D01*
X1071067Y1302258D01*
X1072692Y1306017D01*
X1075639Y1308811D01*
X1077518Y1310030D01*
X1081633Y1314094D01*
X1084681Y1319022D01*
X1086612Y1324457D01*
X1087323Y1332077D01*
X1088085Y1335938D01*
X1090269Y1339240D01*
X1093520Y1341424D01*
X1097432Y1342237D01*
X1246225Y1343304D01*
X1250340Y1342440D01*
X1253744Y1340053D01*
X1255928Y1336497D01*
X1257706Y1331264D01*
X1260805Y1326388D01*
X1264920Y1322273D01*
X1269796Y1319225D01*
X1275232Y1317294D01*
X1281582Y1316583D01*
X1380439Y1316583D01*
X1386738Y1317294D01*
X1392224Y1319225D01*
X1397101Y1322273D01*
X1401216Y1326388D01*
X1404315Y1331264D01*
X1406194Y1336751D01*
X1406906Y1343050D01*
X1406906Y1399590D01*
X1407668Y1403502D01*
X1409903Y1406753D01*
X1414119Y1411020D01*
X1417421Y1413205D01*
X1421333Y1414018D01*
X1770227Y1414018D01*
X1774139Y1413205D01*
X1777441Y1411020D01*
X1779625Y1407718D01*
X1780387Y1403858D01*
X1780387Y1398168D01*
X1781098Y1391869D01*
X1783029Y1386382D01*
X1786077Y1381506D01*
X1790192Y1377391D01*
X1795068Y1374343D01*
X1800555Y1372412D01*
X1806854Y1371701D01*
X1905711Y1371701D01*
X1912061Y1372412D01*
X1917496Y1374343D01*
X1922424Y1377391D01*
X1926488Y1381506D01*
X1929587Y1386382D01*
X1931517Y1391869D01*
X1932228Y1398168D01*
X1932228Y1507032D01*
X1931517Y1513332D01*
X1929587Y1518818D01*
X1926488Y1523695D01*
X1922424Y1527810D01*
X1917496Y1530908D01*
X1912061Y1532788D01*
X1905711Y1533499D01*
X1806854Y1533499D01*
X1800555Y1532788D01*
X1795068Y1530908D01*
X1790192Y1527810D01*
X1786077Y1523695D01*
X1783029Y1518818D01*
X1781098Y1513332D01*
X1780387Y1507032D01*
X1780387Y1501394D01*
X1779625Y1497482D01*
X1777441Y1494180D01*
X1774139Y1491996D01*
X1770227Y1491234D01*
X1401622Y1491234D01*
X1393596Y1490421D01*
X1386382Y1488236D01*
X1379677Y1484680D01*
X1373479Y1479550D01*
X1345285Y1451406D01*
X1341983Y1449171D01*
X1338122Y1448409D01*
X1281582Y1448409D01*
X1275232Y1447698D01*
X1269796Y1445768D01*
X1264920Y1442720D01*
X1260805Y1438605D01*
X1257706Y1433728D01*
X1255471Y1427327D01*
X1253337Y1423771D01*
X1249984Y1421384D01*
X1245971Y1420520D01*
X1097534Y1419453D01*
X1093876Y1420114D01*
X1090726Y1422044D01*
X1088440Y1424990D01*
X1087374Y1428546D01*
X1086612Y1436014D01*
X1084681Y1441450D01*
X1081633Y1446326D01*
X1077518Y1450441D01*
X1072642Y1453489D01*
X1067155Y1455420D01*
X1060856Y1456131D01*
X951992Y1456131D01*
X945642Y1455420D01*
X940206Y1453489D01*
X935278Y1450441D01*
X931214Y1446326D01*
X928116Y1441450D01*
X926236Y1435963D01*
X925525Y1429664D01*
X925525Y1330807D01*
X926236Y1324457D01*
X928116Y1319022D01*
X931214Y1314094D01*
X935278Y1310030D01*
X937209Y1308811D01*
X940155Y1306017D01*
X941730Y1302258D01*
X941730Y1298194D01*
X940155Y1294434D01*
X937209Y1291640D01*
X935278Y1290421D01*
X931214Y1286357D01*
X928116Y1281430D01*
X926236Y1275994D01*
X925525Y1269644D01*
X925525Y1170787D01*
X926236Y1164488D01*
X928116Y1159002D01*
X931214Y1154125D01*
X935278Y1150010D01*
X940206Y1146962D01*
X945642Y1145032D01*
X951992Y1144320D01*
X957732Y1144320D01*
X961644Y1143558D01*
X964946Y1141323D01*
X967130Y1138072D01*
X967892Y1134160D01*
X967892Y726694D01*
X967130Y722833D01*
X964946Y719531D01*
X459993Y214579D01*
X456692Y212394D01*
X452831Y211632D01*
X326898Y211632D01*
X323088Y212344D01*
X319836Y214426D01*
X317601Y217627D01*
X311353Y231495D01*
X303479Y244500D01*
X294132Y256438D01*
X283362Y267208D01*
X271424Y276555D01*
X262077Y282194D01*
X258927Y285242D01*
X257302Y289255D01*
X257556Y293624D01*
X259588Y297484D01*
X263093Y300126D01*
X267360Y301040D01*
X299313Y301040D01*
X305663Y301802D01*
X311099Y303682D01*
X316026Y306781D01*
X320090Y310845D01*
X323189Y315772D01*
X325069Y321208D01*
X325831Y327558D01*
X325831Y370636D01*
X256235Y370636D01*
X256235Y300837D01*
X255524Y297129D01*
X253542Y293928D01*
X250494Y291693D01*
X246837Y290728D01*
X243078Y291134D01*
X230022Y295198D01*
X215087Y297942D01*
X199898Y298856D01*
X184708Y297942D01*
X169773Y295198D01*
X156718Y291134D01*
X152958Y290728D01*
X149301Y291693D01*
X146253Y293928D01*
X144272Y297129D01*
X143560Y300837D01*
X143560Y370636D01*
X74015Y370636D01*
X74015Y327558D01*
X74726Y321208D01*
X76606Y315772D01*
X79705Y310845D01*
X83769Y306781D01*
X88696Y303682D01*
X94132Y301802D01*
X100482Y301040D01*
X132435Y301040D01*
X136702Y300126D01*
X140208Y297484D01*
X142240Y293624D01*
X142494Y289255D01*
X140868Y285242D01*
X137718Y282194D01*
X128371Y276555D01*
X116433Y267208D01*
X105664Y256438D01*
X96316Y244500D01*
X88442Y231495D01*
X82194Y217627D01*
X77673Y203098D01*
X74930Y188163D01*
X74015Y172974D01*
X74930Y157784D01*
X77673Y142849D01*
X82194Y128320D01*
X88442Y114452D01*
X96316Y101447D01*
X105664Y89509D01*
X116433Y78740D01*
X128371Y69392D01*
X141376Y61518D01*
X155244Y55270D01*
X169773Y50749D01*
X184708Y48006D01*
G37*
G36*
X256235Y483311D02*
G01*
X325831Y483311D01*
X325831Y526389D01*
X325069Y532739D01*
X323189Y538175D01*
X320090Y543102D01*
X316026Y547166D01*
X311099Y550265D01*
X305663Y552145D01*
X299313Y552856D01*
X256235Y552856D01*
G37*
G36*
X74015Y483311D02*
G01*
X143560Y483311D01*
X143560Y552856D01*
X100482Y552856D01*
X94132Y552145D01*
X88696Y550265D01*
X83769Y547166D01*
X79705Y543102D01*
X76606Y538175D01*
X74726Y532739D01*
X74015Y526389D01*
G37*
G36*
X1528572Y691997D02*
G01*
X1627428Y691997D01*
X1633778Y692708D01*
X1639214Y694588D01*
X1644142Y697687D01*
X1648206Y701802D01*
X1651304Y706678D01*
X1653184Y712165D01*
X1653895Y718464D01*
X1653895Y807313D01*
X1653184Y813663D01*
X1651304Y819099D01*
X1648206Y824026D01*
X1644142Y828090D01*
X1639214Y831189D01*
X1633829Y833069D01*
X1625803Y833831D01*
X1622196Y834898D01*
X1619250Y837133D01*
X1617319Y840282D01*
X1616608Y843940D01*
X1616608Y1044143D01*
X1617370Y1048054D01*
X1619605Y1051356D01*
X1699869Y1131620D01*
X1703171Y1133805D01*
X1707032Y1134618D01*
X1770227Y1134618D01*
X1774139Y1133805D01*
X1777441Y1131620D01*
X1779625Y1128318D01*
X1780387Y1124458D01*
X1780387Y1118768D01*
X1781098Y1112469D01*
X1783029Y1106982D01*
X1786128Y1102106D01*
X1790192Y1097991D01*
X1795119Y1094943D01*
X1800555Y1093012D01*
X1806905Y1092301D01*
X1905762Y1092301D01*
X1912061Y1093012D01*
X1917547Y1094943D01*
X1922424Y1097991D01*
X1926539Y1102106D01*
X1929587Y1106982D01*
X1931517Y1112469D01*
X1932228Y1118768D01*
X1932228Y1227632D01*
X1931517Y1233932D01*
X1929587Y1239418D01*
X1926539Y1244295D01*
X1922424Y1248410D01*
X1917547Y1251508D01*
X1912061Y1253388D01*
X1905762Y1254099D01*
X1806905Y1254099D01*
X1800555Y1253388D01*
X1795119Y1251508D01*
X1790192Y1248410D01*
X1786128Y1244295D01*
X1783029Y1239418D01*
X1781098Y1233932D01*
X1780387Y1227632D01*
X1780387Y1221994D01*
X1779625Y1218082D01*
X1777441Y1214780D01*
X1774139Y1212596D01*
X1770227Y1211834D01*
X1707032Y1211834D01*
X1703171Y1212596D01*
X1699869Y1214780D01*
X1649882Y1264767D01*
X1647698Y1268069D01*
X1646936Y1271930D01*
X1646936Y1328470D01*
X1646224Y1334770D01*
X1644294Y1340256D01*
X1641195Y1345133D01*
X1637131Y1349248D01*
X1632204Y1352296D01*
X1626768Y1354226D01*
X1620418Y1354937D01*
X1521561Y1354937D01*
X1515262Y1354226D01*
X1509776Y1352296D01*
X1504899Y1349248D01*
X1500784Y1345133D01*
X1497736Y1340256D01*
X1495806Y1334770D01*
X1495094Y1328470D01*
X1495094Y1249578D01*
X1495806Y1243279D01*
X1497736Y1237792D01*
X1500784Y1232916D01*
X1504899Y1228801D01*
X1509776Y1225753D01*
X1515262Y1223822D01*
X1521561Y1223111D01*
X1578102Y1223111D01*
X1582013Y1222349D01*
X1585315Y1220165D01*
X1625041Y1180388D01*
X1627276Y1177086D01*
X1628038Y1173226D01*
X1627276Y1169314D01*
X1625041Y1166012D01*
X1551076Y1091996D01*
X1545945Y1085799D01*
X1542389Y1079144D01*
X1540205Y1071880D01*
X1539392Y1063853D01*
X1539392Y843940D01*
X1538732Y840282D01*
X1536750Y837133D01*
X1533804Y834898D01*
X1530248Y833831D01*
X1522171Y833069D01*
X1516786Y831189D01*
X1511909Y828090D01*
X1507794Y824026D01*
X1504746Y819099D01*
X1502816Y813663D01*
X1502105Y807313D01*
X1502105Y718464D01*
X1502816Y712165D01*
X1504746Y706678D01*
X1507794Y701802D01*
X1511909Y697687D01*
X1516786Y694588D01*
X1522272Y692708D01*
G37*
G36*
X2804261Y1104290D02*
G01*
X2817317Y1104290D01*
X2823667Y1105001D01*
X2829102Y1106932D01*
X2834030Y1109980D01*
X2838094Y1114094D01*
X2841193Y1118971D01*
X2843123Y1124458D01*
X2843834Y1130757D01*
X2843834Y1148842D01*
X2804261Y1148842D01*
G37*
G36*
X1362354Y1126591D02*
G01*
X1380439Y1126591D01*
X1386738Y1127302D01*
X1392224Y1129233D01*
X1397101Y1132281D01*
X1401216Y1136396D01*
X1404315Y1141272D01*
X1406194Y1146759D01*
X1406906Y1153058D01*
X1406906Y1166164D01*
X1362354Y1166164D01*
G37*
G36*
X2804261Y1211529D02*
G01*
X2843834Y1211529D01*
X2843834Y1229614D01*
X2843123Y1235964D01*
X2841193Y1241399D01*
X2838094Y1246327D01*
X2834030Y1250391D01*
X2829102Y1253490D01*
X2823667Y1255420D01*
X2817317Y1256131D01*
X2804261Y1256131D01*
G37*
G36*
X1362354Y1218844D02*
G01*
X1406906Y1218844D01*
X1406906Y1231950D01*
X1406194Y1238250D01*
X1404315Y1243736D01*
X1401216Y1248613D01*
X1397101Y1252728D01*
X1392224Y1255776D01*
X1386738Y1257706D01*
X1380439Y1258417D01*
X1362354Y1258417D01*
G37*
G36*
X1255115Y1218844D02*
G01*
X1299667Y1218844D01*
X1299667Y1258417D01*
X1281582Y1258417D01*
X1275232Y1257706D01*
X1269796Y1255776D01*
X1264920Y1252728D01*
X1260805Y1248613D01*
X1257706Y1243736D01*
X1255826Y1238250D01*
X1255115Y1231950D01*
G37*

%LPD*%
D10*
X1450009Y900003D02*
G01*
X1129817Y1220195D01*
X1006508Y1220195D01*
X1700009Y900003D02*
G01*
X1719209Y919203D01*
X1879000Y919203D01*
X1578008Y115295D02*
G01*
X1879000Y416283D01*
X1879000Y919203D01*
X1578008Y115295D02*
G01*
X2682908Y115295D01*
X200007Y173004D02*
G01*
X473008Y173004D01*
X1006508Y706503D01*
X1006508Y1220195D01*
X2682908Y762995D02*
G01*
X2681381Y1420345D01*
X2682908Y275285D02*
G01*
X2682908Y592891D01*
X1578008Y275285D02*
G01*
X1578008Y592891D01*
X1578008Y762888D02*
G01*
X1578008Y1064366D01*
X1686844Y1173203D01*
X1571025Y1289029D02*
G01*
X1686844Y1173203D01*
X1856315Y1173203D01*
X2036323Y1173203D02*
G01*
X2038990Y1170536D01*
X2038990Y919203D01*
X2036323Y1173203D02*
G01*
X2043330Y1180211D01*
X2587906Y1180211D01*
X2036300Y1452603D02*
G01*
X2068682Y1420220D01*
X2681381Y1420220D01*
X1331015Y1382499D02*
G01*
X1401119Y1452603D01*
X1856292Y1452603D01*
X1006508Y1380210D02*
G01*
X1331120Y1382499D01*
D12*
G01*
X1006414Y1220231D03*
G01*
X1006414Y1380225D03*
G01*
X2682814Y115331D03*
G01*
X2682814Y275325D03*
G36*
X1528008Y807890D02*
G01*
X1628007Y807890D01*
X1628007Y717897D01*
X1528008Y717897D01*
G37*
G36*
X1528008Y637890D02*
G01*
X1628007Y637890D01*
X1628007Y547898D01*
X1528008Y547898D01*
G37*
G36*
X2632908Y807890D02*
G01*
X2732907Y807890D01*
X2732907Y717897D01*
X2632908Y717897D01*
G37*
G36*
X2632908Y637890D02*
G01*
X2732907Y637890D01*
X2732907Y547898D01*
X2632908Y547898D01*
G37*
D14*
G01*
X1878990Y919200D03*
G01*
X2039010Y919200D03*
D12*
G01*
X1578000Y115290D03*
G01*
X1578000Y275285D03*
G36*
X2547907Y1230215D02*
G01*
X2627917Y1230215D01*
X2627917Y1130216D01*
X2547907Y1130216D01*
G37*
G36*
X2737899Y1230215D02*
G01*
X2817909Y1230215D01*
X2817909Y1130216D01*
X2737899Y1130216D01*
G37*
G36*
X2641379Y1470215D02*
G01*
X2721389Y1470215D01*
X2721389Y1370215D01*
X2641379Y1370215D01*
G37*
D16*
G01*
X1331010Y1382496D03*
G01*
X1331010Y1192504D03*
G01*
X1571015Y1289024D03*
G36*
X1806310Y1228204D02*
G01*
X1906310Y1228204D01*
X1906310Y1118201D01*
X1806310Y1118201D01*
G37*
G36*
X1986320Y1228204D02*
G01*
X2086320Y1228204D01*
X2086320Y1118201D01*
X1986320Y1118201D01*
G37*
D14*
G01*
X2036318Y1452600D03*
G01*
X1856308Y1452600D03*
D17*
G01*
X199897Y426973D03*
D18*
G01*
X199897Y172973D03*
D11*
G01*
X1699996Y899998D03*
G01*
X1450009Y899998D03*
G01*
X299999Y1599999D03*
G01*
X99999Y1399997D03*
G01*
X99999Y1599996D03*
G01*
X3199993Y1599996D03*
G01*
X2999993Y1599996D03*
G01*
X3199993Y1399997D03*
M02*
