G04 Layer: TopSolderMaskLayer*
G04 EasyEDA v6.5.1, 2022-03-27 00:49:21*
G04 a67cddfb3fce44daa9051d46cbbcc19f,10*
G04 Gerber Generator version 0.2*
G04 Scale: 100 percent, Rotated: No, Reflected: No *
G04 Dimensions in millimeters *
G04 leading zeros omitted , absolute positions ,4 integer and 5 decimal *
%FSLAX45Y45*%
%MOMM*%

%ADD25C,2.1016*%

%LPD*%
G36*
X94742Y321818D02*
G01*
X94742Y532129D01*
X305054Y532129D01*
X305054Y321818D01*
G37*
D25*
G01*
X199897Y172973D03*
G36*
X946404Y1165097D02*
G01*
X946404Y1275334D01*
X1066545Y1275334D01*
X1066545Y1165097D01*
G37*
G36*
X946404Y1325118D02*
G01*
X946404Y1435354D01*
X1066545Y1435354D01*
X1066545Y1325118D01*
G37*
G36*
X2622804Y60197D02*
G01*
X2622804Y170434D01*
X2742945Y170434D01*
X2742945Y60197D01*
G37*
G36*
X2622804Y220218D02*
G01*
X2622804Y330454D01*
X2742945Y330454D01*
X2742945Y220218D01*
G37*
G36*
X1517904Y707644D02*
G01*
X1517904Y818134D01*
X1638045Y818134D01*
X1638045Y707644D01*
G37*
G36*
X1517904Y537718D02*
G01*
X1517904Y647954D01*
X1638045Y647954D01*
X1638045Y537718D01*
G37*
G36*
X2622804Y707644D02*
G01*
X2622804Y818134D01*
X2742945Y818134D01*
X2742945Y707644D01*
G37*
G36*
X2622804Y537718D02*
G01*
X2622804Y647954D01*
X2742945Y647954D01*
X2742945Y537718D01*
G37*
G36*
X1818894Y853947D02*
G01*
X1818894Y984250D01*
X1939036Y984250D01*
X1939036Y853947D01*
G37*
G36*
X1978913Y853947D02*
G01*
X1978913Y984250D01*
X2099056Y984250D01*
X2099056Y853947D01*
G37*
G36*
X1512823Y55118D02*
G01*
X1512823Y175513D01*
X1643126Y175513D01*
X1643126Y55118D01*
G37*
G36*
X1512823Y215137D02*
G01*
X1512823Y335534D01*
X1643126Y335534D01*
X1643126Y215137D01*
G37*
G36*
X2537713Y1120139D02*
G01*
X2537713Y1240281D01*
X2638043Y1240281D01*
X2638043Y1120139D01*
G37*
G36*
X2727706Y1120139D02*
G01*
X2727706Y1240281D01*
X2828036Y1240281D01*
X2828036Y1120139D01*
G37*
G36*
X2631186Y1360170D02*
G01*
X2631186Y1480312D01*
X2731515Y1480312D01*
X2731515Y1360170D01*
G37*
G36*
X1270762Y1332229D02*
G01*
X1270762Y1432560D01*
X1391157Y1432560D01*
X1391157Y1332229D01*
G37*
G36*
X1270762Y1142237D02*
G01*
X1270762Y1242568D01*
X1391157Y1242568D01*
X1391157Y1142237D01*
G37*
G36*
X1510792Y1238757D02*
G01*
X1510792Y1339087D01*
X1631187Y1339087D01*
X1631187Y1238757D01*
G37*
G36*
X1796034Y1107947D02*
G01*
X1796034Y1238250D01*
X1916429Y1238250D01*
X1916429Y1107947D01*
G37*
G36*
X1976120Y1107947D02*
G01*
X1976120Y1238250D01*
X2096515Y1238250D01*
X2096515Y1107947D01*
G37*
G36*
X1976120Y1387347D02*
G01*
X1976120Y1517650D01*
X2096515Y1517650D01*
X2096515Y1387347D01*
G37*
G36*
X1796034Y1387347D02*
G01*
X1796034Y1517650D01*
X1916429Y1517650D01*
X1916429Y1387347D01*
G37*
M02*
