G04 Layer: BottomSilkscreenLayer*
G04 EasyEDA v6.5.1, 2022-03-27 00:49:21*
G04 a67cddfb3fce44daa9051d46cbbcc19f,10*
G04 Gerber Generator version 0.2*
G04 Scale: 100 percent, Rotated: No, Reflected: No *
G04 Dimensions in millimeters *
G04 leading zeros omitted , absolute positions ,4 integer and 5 decimal *
%FSLAX45Y45*%
%MOMM*%

%ADD23C,0.2000*%

%LPD*%
D23*
X3102008Y549633D02*
G01*
X3102008Y358625D01*
X3102008Y358625D02*
G01*
X2993042Y358625D01*
X2932844Y549633D02*
G01*
X2932844Y358625D01*
X2932844Y549633D02*
G01*
X2814734Y549633D01*
X2932844Y458701D02*
G01*
X2860200Y458701D01*
X2932844Y358625D02*
G01*
X2814734Y358625D01*
X2754790Y549633D02*
G01*
X2754790Y358625D01*
X2754790Y549633D02*
G01*
X2691036Y549633D01*
X2663858Y540489D01*
X2645570Y522201D01*
X2636680Y504167D01*
X2627536Y476735D01*
X2627536Y431269D01*
X2636680Y404091D01*
X2645570Y385803D01*
X2663858Y367769D01*
X2691036Y358625D01*
X2754790Y358625D01*
X2427384Y549633D02*
G01*
X2427384Y358625D01*
X2427384Y458701D02*
G01*
X2409350Y476735D01*
X2391062Y485879D01*
X2363884Y485879D01*
X2345596Y476735D01*
X2327562Y458701D01*
X2318418Y431269D01*
X2318418Y413235D01*
X2327562Y385803D01*
X2345596Y367769D01*
X2363884Y358625D01*
X2391062Y358625D01*
X2409350Y367769D01*
X2427384Y385803D01*
X2258474Y549633D02*
G01*
X2258474Y358625D01*
X2198276Y549633D02*
G01*
X2189386Y540489D01*
X2180242Y549633D01*
X2189386Y558523D01*
X2198276Y549633D01*
X2189386Y485879D02*
G01*
X2189386Y358625D01*
X2120298Y485879D02*
G01*
X2120298Y358625D01*
X2120298Y449557D02*
G01*
X2092866Y476735D01*
X2074832Y485879D01*
X2047400Y485879D01*
X2029366Y476735D01*
X2020222Y449557D01*
X2020222Y358625D01*
X1960278Y549633D02*
G01*
X1960278Y358625D01*
X1869346Y485879D02*
G01*
X1960278Y394947D01*
X1923702Y431269D02*
G01*
X1860202Y358625D01*
X1800258Y549633D02*
G01*
X1791114Y540489D01*
X1781970Y549633D01*
X1791114Y558523D01*
X1800258Y549633D01*
X1791114Y485879D02*
G01*
X1791114Y358625D01*
X1722026Y485879D02*
G01*
X1722026Y358625D01*
X1722026Y449557D02*
G01*
X1694848Y476735D01*
X1676560Y485879D01*
X1649382Y485879D01*
X1631094Y476735D01*
X1621950Y449557D01*
X1621950Y358625D01*
X1453040Y485879D02*
G01*
X1453040Y340337D01*
X1461930Y313159D01*
X1471074Y304015D01*
X1489362Y294871D01*
X1516540Y294871D01*
X1534828Y304015D01*
X1453040Y458701D02*
G01*
X1471074Y476735D01*
X1489362Y485879D01*
X1516540Y485879D01*
X1534828Y476735D01*
X1552862Y458701D01*
X1562006Y431269D01*
X1562006Y413235D01*
X1552862Y385803D01*
X1534828Y367769D01*
X1516540Y358625D01*
X1489362Y358625D01*
X1471074Y367769D01*
X1453040Y385803D01*
X3114652Y236461D02*
G01*
X3058772Y89395D01*
X3002638Y236461D02*
G01*
X3058772Y89395D01*
X2956410Y145529D02*
G01*
X2872590Y145529D01*
X2872590Y159499D01*
X2879448Y173469D01*
X2886560Y180327D01*
X2900530Y187439D01*
X2921612Y187439D01*
X2935582Y180327D01*
X2949552Y166357D01*
X2956410Y145529D01*
X2956410Y131305D01*
X2949552Y110477D01*
X2935582Y96507D01*
X2921612Y89395D01*
X2900530Y89395D01*
X2886560Y96507D01*
X2872590Y110477D01*
X2826362Y187439D02*
G01*
X2826362Y89395D01*
X2826362Y145529D02*
G01*
X2819250Y166357D01*
X2805280Y180327D01*
X2791310Y187439D01*
X2770228Y187439D01*
X2647038Y166357D02*
G01*
X2654150Y180327D01*
X2674978Y187439D01*
X2696060Y187439D01*
X2717142Y180327D01*
X2724000Y166357D01*
X2717142Y152387D01*
X2703172Y145529D01*
X2668120Y138417D01*
X2654150Y131305D01*
X2647038Y117335D01*
X2647038Y110477D01*
X2654150Y96507D01*
X2674978Y89395D01*
X2696060Y89395D01*
X2717142Y96507D01*
X2724000Y110477D01*
X2600810Y236461D02*
G01*
X2593952Y229349D01*
X2586840Y236461D01*
X2593952Y243319D01*
X2600810Y236461D01*
X2593952Y187439D02*
G01*
X2593952Y89395D01*
X2505814Y187439D02*
G01*
X2519784Y180327D01*
X2533754Y166357D01*
X2540612Y145529D01*
X2540612Y131305D01*
X2533754Y110477D01*
X2519784Y96507D01*
X2505814Y89395D01*
X2484732Y89395D01*
X2470762Y96507D01*
X2456792Y110477D01*
X2449680Y131305D01*
X2449680Y145529D01*
X2456792Y166357D01*
X2470762Y180327D01*
X2484732Y187439D01*
X2505814Y187439D01*
X2403452Y187439D02*
G01*
X2403452Y89395D01*
X2403452Y159499D02*
G01*
X2382624Y180327D01*
X2368400Y187439D01*
X2347572Y187439D01*
X2333602Y180327D01*
X2326490Y159499D01*
X2326490Y89395D01*
X2172566Y208521D02*
G01*
X2158596Y215379D01*
X2137514Y236461D01*
X2137514Y89395D01*
X2084428Y124447D02*
G01*
X2091286Y117335D01*
X2084428Y110477D01*
X2077316Y117335D01*
X2084428Y124447D01*
X1989178Y236461D02*
G01*
X2010006Y229349D01*
X2023976Y208521D01*
X2031088Y173469D01*
X2031088Y152387D01*
X2023976Y117335D01*
X2010006Y96507D01*
X1989178Y89395D01*
X1975208Y89395D01*
X1954126Y96507D01*
X1940156Y117335D01*
X1933044Y152387D01*
X1933044Y173469D01*
X1940156Y208521D01*
X1954126Y229349D01*
X1975208Y236461D01*
X1989178Y236461D01*
X1879958Y124447D02*
G01*
X1886816Y117335D01*
X1879958Y110477D01*
X1872846Y117335D01*
X1879958Y124447D01*
X1784708Y236461D02*
G01*
X1805790Y229349D01*
X1819760Y208521D01*
X1826618Y173469D01*
X1826618Y152387D01*
X1819760Y117335D01*
X1805790Y96507D01*
X1784708Y89395D01*
X1770738Y89395D01*
X1749656Y96507D01*
X1735686Y117335D01*
X1728828Y152387D01*
X1728828Y173469D01*
X1735686Y208521D01*
X1749656Y229349D01*
X1770738Y236461D01*
X1784708Y236461D01*
M02*
