<svg xmlns="http://www.w3.org/2000/svg" xmlns:xlink="http://www.w3.org/1999/xlink" width="38.075mm" height="22.073mm" viewBox="4010 3372.6 149.9 86.9"><title></title><style type="text/css">
*[layerid="1"] {stroke:#000000;fill:#000000;}
*[layerid="2"] {stroke:#000000;fill:#000000;}
*[layerid="3"] {stroke:#000000;fill:#000000;}
*[layerid="4"] {stroke:#000000;fill:#000000;}
*[layerid="5"] {stroke:#000000;fill:#000000;}
*[layerid="6"] {stroke:#000000;fill:#000000;}
*[layerid="7"] {stroke:#000000;fill:#000000;}
*[layerid="8"] {stroke:#000000;fill:#000000;}
*[layerid="9"] {stroke:#000000;fill:#000000;}
*[layerid="10"] {stroke:#000000;fill:#000000;}
*[layerid="11"] {stroke:#000000;fill:#000000;}
*[layerid="12"] {stroke:#000000;fill:#000000;}
*[layerid="13"] {stroke:#000000;fill:#000000;}
*[layerid="14"] {stroke:#000000;fill:#000000;}
*[layerid="15"] {stroke:#000000;fill:#000000;}
*[layerid="19"] {stroke:#000000;fill:#000000;}
*[layerid="21"] {stroke:#000000;fill:#000000;}
*[layerid="22"] {stroke:#000000;fill:#000000;}
*[layerid="23"] {stroke:#000000;fill:#000000;}
*[layerid="24"] {stroke:#000000;fill:#000000;}
*[layerid="25"] {stroke:#000000;fill:#000000;}
*[layerid="26"] {stroke:#000000;fill:#000000;}
*[layerid="27"] {stroke:#000000;fill:#000000;}
*[layerid="28"] {stroke:#000000;fill:#000000;}
*[layerid="29"] {stroke:#000000;fill:#000000;}
*[layerid="30"] {stroke:#000000;fill:#000000;}
*[layerid="31"] {stroke:#000000;fill:#000000;}
*[layerid="32"] {stroke:#000000;fill:#000000;}
*[layerid="33"] {stroke:#000000;fill:#000000;}
*[layerid="34"] {stroke:#000000;fill:#000000;}
*[layerid="35"] {stroke:#000000;fill:#000000;}
*[layerid="36"] {stroke:#000000;fill:#000000;}
*[layerid="37"] {stroke:#000000;fill:#000000;}
*[layerid="38"] {stroke:#000000;fill:#000000;}
*[layerid="39"] {stroke:#000000;fill:#000000;}
*[layerid="40"] {stroke:#000000;fill:#000000;}
*[layerid="41"] {stroke:#000000;fill:#000000;}
*[layerid="42"] {stroke:#000000;fill:#000000;}
*[layerid="43"] {stroke:#000000;fill:#000000;}
*[layerid="44"] {stroke:#000000;fill:#000000;}
*[layerid="45"] {stroke:#000000;fill:#000000;}
*[layerid="46"] {stroke:#000000;fill:#000000;}
*[layerid="47"] {stroke:#000000;fill:#000000;}
*[layerid="48"] {stroke:#000000;fill:#000000;}
*[layerid="49"] {stroke:#000000;fill:#000000;}
*[layerid="50"] {stroke:#000000;fill:#000000;}
*[layerid="51"] {stroke:#000000;fill:#000000;}
*[layerid="52"] {stroke:#000000;fill:#000000;}
*[layerid="99"] {stroke:#000000;fill:#000000;}
*[layerid="100"] {stroke:#000000;fill:#000000;}
*[layerid="101"] {stroke:#000000;fill:#000000;}
*[layerid="Hole"] {stroke:#000000;fill:#000000;}
*[layerid="DRCError"] {stroke:#000000;fill:#000000;}
*[fill="none"] {fill: none;}
*[stroke="none"] {stroke: none;}
path, polyline, polygon, line {stroke-linecap:round;}
g[c_partid="part_pad"][layerid="1"] ellipse:not([c_etype="pad_outer"]) {fill:#000000;}
g[c_partid="part_pad"][layerid="1"] polygon:not([c_etype="pad_outer"]) {fill:#000000;}
g[c_partid="part_pad"][layerid="1"] polyline:not([c_etype="pad_outer"]) {stroke:#000000;}
g[c_partid="part_pad"][layerid="2"] ellipse:not([c_etype="pad_outer"]) {fill:#000000;}
g[c_partid="part_pad"][layerid="2"] polygon:not([c_etype="pad_outer"]) {fill:#000000;}
g[c_partid="part_pad"][layerid="2"] polyline:not([c_etype="pad_outer"]) {stroke:#000000;}
g[c_partid="part_pad"][layerid="11"] ellipse:not([c_etype="pad_outer"]) {fill:#000000;}
g[c_partid="part_pad"][layerid="11"] polygon:not([c_etype="pad_outer"]) {fill:#000000;}
g[c_partid="part_pad"][layerid="11"] polyline:not([c_etype="pad_outer"]) {stroke:#000000;}
g[c_partid="part_pad"][layerid="11"] circle {fill:#FFFFFF;}
g[c_partid="part_pad"][layerid="11"] > polyline:nth-of-type(2) {stroke:#FFFFFF;}
g[c_partid="part_pad"][layerid="11"][c_shape="ELLIPSE"]  polyline:nth-last-of-type(1) {stroke:#FFFFFF;}
g[c_partid="part_pad"][layerid="11"][c_shape="RECT"]  polyline:nth-last-of-type(1) {stroke:#FFFFFF;}
g[c_partid="part_pad"][layerid="11"][c_shape="POLYGON"]  polyline:nth-last-of-type(1) {stroke:#FFFFFF;}
g[c_partid="part_via"] > * + circle, #gCurParts g[c_partid="part_via"] > * + circle {fill:#FFFFFF;}
g[c_partid="part_pad"] > polygon[c_etype="pad_outer"], #gCurParts g[c_partid="part_pad"] > polygon[c_etype="pad_outer"] {stroke-linejoin: miter;stroke-miterlimit: 100;}
g[c_partid="part_hole"] > circle {fill: #FFFFFF;}path, polyline, polygon {stroke-linejoin:round;}
rect, circle, ellipse, polyline, line, polygon, path {shape-rendering:crispEdges;}
</style>
<rect x="4010" y="3372.6" width="149.9" height="86.9" fill="#FFFFFF" stroke="none"/><path d="M 4021.4203 3448.4799 L 4021.26723 3448.44945 4021.13746 3448.36274 4021.05075 3448.23297 4021.0203 3448.0799 4021.0203 3383.9907 4021.05075 3383.83763 4021.13746 3383.70786 4021.26723 3383.62115 4021.4203 3383.5907 4148.5017 3383.5907 4148.65477 3383.62115 4148.78454 3383.70786 4148.87125 3383.83763 4148.9017 3383.9907 4148.9017 3448.0799 4148.87125 3448.23297 4148.78454 3448.36274 4148.65477 3448.44945 4148.5017 3448.4799 4128.60694 3448.4799 4128.44016 3448.44347 4128.30375 3448.34081 4128.22257 3448.19063 4128.21141 3448.02028 4128.27229 3447.86079 4128.42233 3447.72349 4128.58344 3447.56238 4128.70466 3447.36946 4128.77991 3447.15441 4128.80795 3446.90554 4128.80795 3443.01346 4128.77991 3442.76459 4128.70466 3442.54954 4128.58344 3442.35662 4128.42233 3442.19551 4128.34798 3442.14879 4128.23199 3442.03789 4128.16892 3441.89034 4128.16892 3441.72986 4128.23199 3441.58231 4128.34798 3441.47141 4128.42233 3441.42469 4128.58344 3441.26358 4128.70466 3441.07066 4128.77991 3440.85561 4128.80795 3440.60674 4128.80795 3436.71466 4128.77991 3436.46579 4128.70466 3436.25074 4128.58344 3436.05782 4128.42233 3435.89671 4128.22941 3435.77549 4128.01436 3435.70024 4127.76549 3435.6722 4127.5463 3435.6722 4127.39323 3435.64175 4127.26346 3435.55504 4127.17675 3435.42527 4127.1463 3435.2722 4127.1463 3429.3492 4127.17313 3429.20517 4127.25003 3429.08046 4127.36667 3428.9918 4127.50741 3428.95109 4127.82405 3428.92017 4128.03626 3428.84591 4128.22918 3428.72469 4128.39029 3428.56358 4128.51151 3428.37066 4128.58676 3428.15561 4128.6148 3427.90674 4128.6148 3424.40866 4128.58676 3424.15979 4128.51151 3423.94474 4128.39029 3423.75182 4128.22918 3423.59071 4128.03626 3423.46949 4127.82121 3423.39424 4127.57234 3423.3662 4123.68026 3423.3662 4123.43139 3423.39424 4123.21634 3423.46949 4123.02342 3423.59071 4122.86231 3423.75182 4122.74109 3423.94474 4122.66584 3424.15979 4122.6378 3424.40866 4122.6378 3427.90674 4122.66584 3428.15561 4122.74109 3428.37066 4122.86231 3428.56358 4123.02342 3428.72469 4123.21634 3428.84591 4123.42855 3428.92017 4123.74519 3428.95109 4123.88593 3428.9918 4124.00257 3429.08046 4124.07947 3429.20517 4124.1063 3429.3492 4124.1063 3435.2722 4124.07585 3435.42527 4123.98914 3435.55504 4123.85937 3435.64175 4123.7063 3435.6722 4123.47971 3435.6722 4123.23084 3435.70024 4123.01579 3435.77549 4122.82287 3435.89671 4122.66176 3436.05782 4122.54054 3436.25074 4122.46529 3436.46579 4122.43725 3436.71466 4122.43725 3440.60674 4122.46529 3440.85561 4122.54054 3441.07066 4122.66176 3441.26358 4122.82287 3441.42469 4122.89722 3441.47141 4123.01321 3441.58231 4123.07628 3441.72986 4123.07628 3441.89034 4123.01321 3442.03789 4122.89722 3442.14879 4122.82287 3442.19551 4122.66176 3442.35662 4122.54054 3442.54954 4122.46631 3442.76169 4122.43537 3443.07955 4122.39469 3443.22034 4122.30604 3443.33703 4122.18132 3443.41396 4122.03725 3443.4408 4086.76165 3443.4408 4086.60857 3443.41035 4086.4788 3443.32364 4086.39209 3443.19387 4086.36165 3443.0408 4086.39209 3442.88772 4086.47881 3442.75795 4095.0373 3434.19961 4095.23862 3433.9543 4095.3789 3433.69185 4095.46529 3433.40707 4095.4964 3433.09126 4095.4964 3416.89625 4095.52324 3416.75221 4095.60014 3416.62749 4095.7168 3416.53884 4095.85756 3416.49814 4096.17457 3416.46721 4096.38676 3416.39296 4096.57968 3416.27174 4096.74079 3416.11063 4096.78751 3416.03628 4096.89841 3415.92029 4097.04596 3415.85722 4097.20644 3415.85722 4097.35399 3415.92029 4097.46489 3416.03628 4097.51161 3416.11063 4097.67272 3416.27174 4097.86564 3416.39296 4098.08069 3416.46821 4098.32956 3416.49625 4102.22164 3416.49625 4102.47051 3416.46821 4102.68556 3416.39296 4102.87848 3416.27174 4103.03959 3416.11063 4103.16081 3415.91771 4103.23606 3415.70266 4103.2641 3415.45379 4103.2641 3411.16801 4103.23606 3410.91914 4103.16081 3410.70409 4103.03959 3410.51117 4102.87848 3410.35006 4102.68556 3410.22884 4102.47337 3410.15459 4102.15636 3410.12366 4102.0156 3410.08296 4101.89894 3409.99431 4101.82204 3409.86959 4101.7952 3409.72555 4101.7952 3406.88983 4101.8215 3406.74718 4101.89694 3406.62329 4102.01161 3406.53445 4102.15041 3406.49234 4102.36461 3406.46821 4102.57966 3406.39296 4102.77258 3406.27174 4102.93369 3406.11063 4103.05491 3405.91771 4103.13016 3405.70266 4103.1582 3405.45379 4103.1582 3404.955 4103.18865 3404.80193 4103.27536 3404.67216 4103.40513 3404.58545 4103.5582 3404.555 4118.8915 3404.555 4119.03554 3404.58183 4119.16025 3404.65874 4119.24891 3404.77539 4119.28961 3404.91614 4119.32054 3405.23306 4119.39479 3405.44526 4119.51601 3405.63818 4119.67712 3405.79929 4119.87004 3405.92051 4120.08509 3405.99576 4120.33396 3406.0238 4123.43864 3406.0238 4123.63118 3406.00211 4123.79721 3406.01841 4123.94216 3406.10102 4124.04079 3406.23558 4124.07596 3406.39866 4124.09889 3416.27237 4124.07238 3416.4165 4123.99575 3416.5414 4123.87927 3416.63032 4123.73858 3416.67133 4123.42894 3416.7022 4123.21634 3416.77659 4123.02342 3416.89781 4122.86231 3417.05892 4122.74109 3417.25184 4122.66584 3417.46689 4122.6378 3417.71576 4122.6378 3421.21384 4122.66584 3421.46271 4122.74109 3421.67776 4122.86231 3421.87068 4123.02342 3422.03179 4123.21634 3422.15301 4123.43139 3422.22826 4123.68026 3422.2563 4127.57234 3422.2563 4127.82121 3422.22826 4128.03626 3422.15301 4128.22918 3422.03179 4128.39029 3421.87068 4128.51151 3421.67776 4128.58676 3421.46271 4128.6148 3421.21384 4128.6148 3417.71576 4128.58676 3417.46689 4128.51151 3417.25184 4128.39029 3417.05892 4128.22918 3416.89781 4128.03626 3416.77659 4127.82441 3416.70246 4127.50078 3416.67148 4127.36 3416.63106 4127.2432 3416.54267 4127.16606 3416.41816 4127.1389 3416.27423 4127.11596 3406.39368 4127.15056 3406.23001 4127.24907 3406.09481 4127.39427 3406.01171 4127.56074 3405.99527 4127.81396 3406.0238 4128.3289 3406.0238 4128.3289 3404.26955 4127.5101 3404.26955 4127.35724 3404.23919 4127.22758 3404.15272 4127.14081 3404.02327 4127.1101 3403.87048 4127.10622 3402.20198 4127.13641 3402.04862 4127.22305 3401.91854 4127.35294 3401.83159 4127.50622 3401.80105 4128.3289 3401.80105 4128.3289 3400.0468 4127.81396 3400.0468 4127.54515 3400.07709 4127.37912 3400.06078 4127.23418 3399.97817 4127.13554 3399.84362 4127.10037 3399.68053 4127.09398 3396.92742 4127.1271 3396.7671 4127.22168 3396.63348 4127.36186 3396.54893 4127.58256 3396.47171 4127.77548 3396.35049 4127.93659 3396.18938 4128.05781 3395.99646 4128.13306 3395.78141 4128.1611 3395.53254 4128.1611 3391.64046 4128.13306 3391.39159 4128.05781 3391.17654 4127.93659 3390.98362 4127.77548 3390.82251 4127.58256 3390.70129 4127.36751 3390.62604 4127.11864 3390.598 4124.01396 3390.598 4123.76509 3390.62604 4123.55004 3390.70129 4123.35712 3390.82251 4123.19601 3390.98362 4123.07479 3391.17654 4123.00052 3391.38879 4122.9696 3391.70476 4122.92887 3391.84548 4122.84022 3391.9621 4122.71552 3392.03897 4122.5715 3392.0658 4103.558 3392.0658 4103.40493 3392.03535 4103.27516 3391.94864 4103.18845 3391.81887 4103.158 3391.6658 4103.158 3390.16801 4103.12996 3389.91914 4103.05471 3389.70409 4102.93349 3389.51117 4102.77238 3389.35006 4102.57946 3389.22884 4102.36441 3389.15359 4102.11554 3389.12555 4098.22346 3389.12555 4097.97459 3389.15359 4097.75954 3389.22884 4097.56662 3389.35006 4097.40551 3389.51117 4097.28429 3389.70409 4097.20904 3389.91914 4097.181 3390.16801 4097.181 3394.45379 4097.20904 3394.70266 4097.28429 3394.91771 4097.40551 3395.11063 4097.56662 3395.27174 4097.75954 3395.39296 4097.97459 3395.46821 4098.22346 3395.49625 4102.11554 3395.49625 4102.36441 3395.46821 4102.57946 3395.39296 4102.77238 3395.27174 4102.82116 3395.22296 4102.95093 3395.13625 4103.10401 3395.1058 4122.5715 3395.1058 4122.71555 3395.13264 4122.84027 3395.20955 4122.92892 3395.32622 4122.96961 3395.46699 4123.00055 3395.78428 4123.07479 3395.99646 4123.19601 3396.18938 4123.35712 3396.35049 4123.55004 3396.47171 4123.78609 3396.55431 4123.92582 3396.63843 4124.02035 3396.77133 4124.05398 3396.93093 4124.06033 3399.66832 4124.02573 3399.83199 4123.92722 3399.9672 4123.78203 3400.05029 4123.61555 3400.06673 4123.43864 3400.0468 4120.33396 3400.0468 4120.08509 3400.07484 4119.87004 3400.15009 4119.67712 3400.27131 4119.51601 3400.43242 4119.39479 3400.62534 4119.32053 3400.83757 4119.2896 3401.15392 4119.24889 3401.29465 4119.16023 3401.41128 4119.03553 3401.48817 4118.8915 3401.515 4103.55476 3401.515 4103.41211 3401.4887 4103.28822 3401.41326 4103.19938 3401.29859 4103.15727 3401.15979 4103.13016 3400.91914 4103.05491 3400.70409 4102.93369 3400.51117 4102.77258 3400.35006 4102.57966 3400.22884 4102.36461 3400.15359 4102.11574 3400.12555 4098.22366 3400.12555 4097.97479 3400.15359 4097.75974 3400.22884 4097.56682 3400.35006 4097.40571 3400.51117 4097.28449 3400.70409 4097.20924 3400.91914 4097.1812 3401.16801 4097.1812 3405.45379 4097.20924 3405.70266 4097.28449 3405.91771 4097.40571 3406.11063 4097.56682 3406.27174 4097.75974 3406.39296 4097.97479 3406.46821 4098.22366 3406.49625 4098.3552 3406.49625 4098.50827 3406.5267 4098.63804 3406.61341 4098.72475 3406.74318 4098.7552 3406.89625 4098.7552 3409.72555 4098.72837 3409.86957 4098.65149 3409.99428 4098.53486 3410.08293 4098.39413 3410.12365 4098.07787 3410.15458 4097.86564 3410.22884 4097.67272 3410.35006 4097.51161 3410.51117 4097.46489 3410.58552 4097.35399 3410.70151 4097.20644 3410.76458 4097.04596 3410.76458 4096.89841 3410.70151 4096.78751 3410.58552 4096.74079 3410.51117 4096.57968 3410.35006 4096.38676 3410.22884 4096.17171 3410.15359 4095.92284 3410.12555 4092.03076 3410.12555 4091.78189 3410.15359 4091.56684 3410.22884 4091.37392 3410.35006 4091.21281 3410.51117 4091.09159 3410.70409 4091.01634 3410.91914 4090.9883 3411.16801 4090.9883 3411.3909 4090.95785 3411.54397 4090.87114 3411.67374 4090.74137 3411.76045 4090.5883 3411.7909 4087.72155 3411.7909 4087.51734 3411.74371 4087.12691 3411.67856 4086.73109 3411.67856 4086.34066 3411.74371 4085.96629 3411.87223 4085.61817 3412.06062 4085.30581 3412.30374 4085.03772 3412.59496 4084.82123 3412.92633 4084.66223 3413.28882 4084.56506 3413.67253 4084.53237 3414.067 4084.56506 3414.46147 4084.66223 3414.84518 4084.82123 3415.20767 4085.03772 3415.53904 4085.30581 3415.83026 4085.61817 3416.07338 4085.96629 3416.26177 4086.34066 3416.39029 4086.73109 3416.45544 4087.12691 3416.45544 4087.51734 3416.39029 4087.89171 3416.26177 4088.23983 3416.07338 4088.55219 3415.83026 4088.82028 3415.53904 4089.03677 3415.20767 4089.09706 3415.07022 4089.18445 3414.94419 4089.31285 3414.8603 4089.46337 3414.8309 4090.5883 3414.8309 4090.74137 3414.86135 4090.87114 3414.94806 4090.95785 3415.07783 4090.9883 3415.2309 4090.9883 3415.45379 4091.01634 3415.70266 4091.09159 3415.91771 4091.21281 3416.11063 4091.37392 3416.27174 4091.56684 3416.39296 4091.77907 3416.46722 4092.09533 3416.49815 4092.23606 3416.53887 4092.35269 3416.62752 4092.42957 3416.75223 4092.4564 3416.89625 4092.4564 3432.3156 4092.42595 3432.46868 4092.33924 3432.59845 4085.99449 3438.94309 4085.86472 3439.0298 4085.71165 3439.06024 4085.55858 3439.02979 4085.42881 3438.94309 4085.3421 3438.81332 4085.31165 3438.66024 4085.31165 3436.71556 4085.28361 3436.46669 4085.20836 3436.25164 4085.08714 3436.05872 4084.92603 3435.89761 4084.73311 3435.77639 4084.51806 3435.70114 4084.26919 3435.6731 4084.0463 3435.6731 4083.89323 3435.64265 4083.76346 3435.55594 4083.67675 3435.42617 4083.6463 3435.2731 4083.6463 3429.3492 4083.67313 3429.20517 4083.75003 3429.08046 4083.86667 3428.9918 4084.00741 3428.95109 4084.32405 3428.92017 4084.53626 3428.84591 4084.72918 3428.72469 4084.89029 3428.56358 4085.01151 3428.37066 4085.08676 3428.15561 4085.1148 3427.90674 4085.1148 3424.40866 4085.08676 3424.15979 4085.01151 3423.94474 4084.89029 3423.75182 4084.72918 3423.59071 4084.53626 3423.46949 4084.32121 3423.39424 4084.07234 3423.3662 4080.18026 3423.3662 4079.93139 3423.39424 4079.71634 3423.46949 4079.52342 3423.59071 4079.36231 3423.75182 4079.24109 3423.94474 4079.16584 3424.15979 4079.1378 3424.40866 4079.1378 3427.90674 4079.16584 3428.15561 4079.24109 3428.37066 4079.36231 3428.56358 4079.52342 3428.72469 4079.71634 3428.84591 4079.92855 3428.92017 4080.24519 3428.95109 4080.38593 3428.9918 4080.50257 3429.08046 4080.57947 3429.20517 4080.6063 3429.3492 4080.6063 3435.2731 4080.57585 3435.42617 4080.48914 3435.55594 4080.35937 3435.64265 4080.2063 3435.6731 4079.98341 3435.6731 4079.73454 3435.70114 4079.51949 3435.77639 4079.32657 3435.89761 4079.16546 3436.05872 4079.04424 3436.25164 4078.96899 3436.46669 4078.94095 3436.71556 4078.94095 3440.60764 4078.96899 3440.85651 4079.04424 3441.07156 4079.16546 3441.26448 4079.32657 3441.42559 4079.40092 3441.47231 4079.51691 3441.58321 4079.57998 3441.73076 4079.57998 3441.89124 4079.51691 3442.03879 4079.40092 3442.14969 4079.32657 3442.19641 4079.16546 3442.35752 4079.04424 3442.55044 4078.96899 3442.76549 4078.94095 3443.01436 4078.94095 3446.90644 4078.96899 3447.15531 4079.04424 3447.37036 4079.16546 3447.56328 4079.47518 3447.86079 4079.53606 3448.02028 4079.52489 3448.19063 4079.44371 3448.34081 4079.30731 3448.44347 4079.14053 3448.4799 4021.4203 3448.4799 Z M 4027.87 3447.64627 L 4028.46741 3447.61013 4029.05611 3447.50225 4029.62752 3447.32419 4030.17329 3447.07856 4030.68548 3446.76893 4031.15661 3446.39982 4031.57982 3445.97661 4031.94893 3445.50548 4032.25856 3444.99329 4032.50549 3444.44463 4032.59316 3444.32032 4032.7209 3444.23773 4032.87025 3444.2088 4038.60275 3444.2088 4038.91856 3444.1777 4039.20334 3444.09131 4039.46579 3443.95102 4039.7111 3443.74971 4060.68721 3422.7736 4060.88852 3422.52829 4061.02881 3422.26584 4061.1152 3421.98106 4061.1463 3421.66525 4061.1463 3404.848 4061.17675 3404.69493 4061.26346 3404.56516 4061.39323 3404.47845 4061.5463 3404.448 4061.76549 3404.448 4062.01436 3404.41996 4062.22941 3404.34471 4062.42233 3404.22349 4062.58344 3404.06238 4062.70466 3403.86946 4062.77894 3403.65718 4062.80986 3403.34178 4062.8506 3403.20108 4062.93926 3403.08448 4063.06395 3403.00762 4063.20795 3402.9808 4063.68571 3402.9808 4063.83878 3403.01125 4063.96855 3403.09796 4074.57819 3413.70759 4074.67091 3413.85276 4074.72306 3414.46147 4074.82023 3414.84518 4074.97923 3415.20767 4075.19572 3415.53904 4075.46381 3415.83026 4075.77617 3416.07338 4076.12429 3416.26177 4076.49866 3416.39029 4076.88909 3416.45544 4077.28491 3416.45544 4077.67534 3416.39029 4078.04971 3416.26177 4078.39783 3416.07338 4078.71019 3415.83026 4078.97828 3415.53904 4079.19477 3415.20767 4079.35377 3414.84518 4079.45094 3414.46147 4079.48363 3414.067 4079.45094 3413.67253 4079.35377 3413.28882 4079.19477 3412.92633 4078.97828 3412.59496 4078.71019 3412.30374 4078.39783 3412.06062 4078.04971 3411.87223 4077.67534 3411.74371 4077.28491 3411.67856 4077.01405 3411.67856 4076.86097 3411.64811 4076.7312 3411.5614 4070.99835 3405.82854 4070.90851 3405.69099 4070.88154 3405.52892 4070.922 3405.36969 4071.02305 3405.24015 4071.16765 3405.16215 4071.16765 3403.5883 4069.26571 3403.5883 4069.13754 3403.65816 4068.99284 3403.67738 4068.85088 3403.6434 4068.73056 3403.56075 4065.5697 3400.39989 4065.32439 3400.19858 4065.06194 3400.05829 4064.77716 3399.9719 4064.46135 3399.9408 4063.20795 3399.9408 4063.06388 3399.91396 4062.93916 3399.83703 4062.85051 3399.72034 4062.80983 3399.57955 4062.77889 3399.26169 4062.70466 3399.04954 4062.58344 3398.85662 4062.42233 3398.69551 4062.34798 3398.64879 4062.23199 3398.53789 4062.16892 3398.39034 4062.16892 3398.22986 4062.23199 3398.08231 4062.34798 3397.97141 4062.42233 3397.92469 4062.58344 3397.76358 4062.70466 3397.57066 4062.77991 3397.35561 4062.80795 3397.0558 4062.83813 3396.90337 4062.92411 3396.77395 4063.05292 3396.68706 4063.20513 3396.65581 4069.06466 3396.6145 4069.22571 3396.64711 4069.36006 3396.74173 4069.44503 3396.88238 4069.51669 3397.08716 4069.63791 3397.28008 4069.79902 3397.44119 4069.99194 3397.56241 4070.20699 3397.63766 4070.45586 3397.6657 4074.34794 3397.6657 4074.59681 3397.63766 4074.81186 3397.56241 4075.00478 3397.44119 4075.16589 3397.28008 4075.28711 3397.08716 4075.36236 3396.87211 4075.3904 3396.62324 4075.3904 3394.39799 4075.42085 3394.24492 4075.50756 3394.11515 4075.67465 3393.94806 4075.80442 3393.86135 4075.95749 3393.8309 4089.6944 3393.8309 4089.84747 3393.86135 4089.97724 3393.94806 4090.06395 3394.07783 4090.0944 3394.2309 4090.0944 3394.45379 4090.12244 3394.70266 4090.19769 3394.91771 4090.31891 3395.11063 4090.48002 3395.27174 4090.67294 3395.39296 4090.88799 3395.46821 4091.13686 3395.49625 4095.02894 3395.49625 4095.27781 3395.46821 4095.49286 3395.39296 4095.68578 3395.27174 4095.84689 3395.11063 4095.96811 3394.91771 4096.04336 3394.70266 4096.0714 3394.45379 4096.0714 3390.16801 4096.04336 3389.91914 4095.96811 3389.70409 4095.84689 3389.51117 4095.68578 3389.35006 4095.49286 3389.22884 4095.27781 3389.15359 4095.02894 3389.12555 4091.13686 3389.12555 4090.88799 3389.15359 4090.67294 3389.22884 4090.48002 3389.35006 4090.31891 3389.51117 4090.19769 3389.70409 4090.12244 3389.91914 4090.0944 3390.16801 4090.0944 3390.3909 4090.06395 3390.54397 4089.97724 3390.67374 4089.84747 3390.76045 4089.6944 3390.7909 4075.18185 3390.7909 4074.86604 3390.822 4074.58126 3390.90839 4074.31881 3391.04868 4074.0735 3391.24999 4072.96455 3392.35894 4072.83478 3392.44565 4072.68171 3392.4761 4070.45586 3392.4761 4070.20699 3392.50414 4069.99194 3392.57939 4069.79902 3392.70061 4069.63791 3392.86172 4069.51669 3393.05464 4069.42852 3393.30662 4069.34483 3393.44589 4069.21264 3393.54038 4069.05379 3393.5745 4063.21077 3393.61569 4063.06656 3393.58988 4062.94131 3393.51387 4062.85184 3393.39786 4062.81013 3393.25742 4062.77939 3392.96432 4062.70466 3392.75074 4062.58344 3392.55782 4062.42233 3392.39671 4062.22941 3392.27549 4062.01436 3392.20024 4061.76549 3392.1722 4057.47971 3392.1722 4057.23084 3392.20024 4057.01579 3392.27549 4056.82287 3392.39671 4056.66176 3392.55782 4056.54054 3392.75074 4056.46529 3392.96579 4056.43725 3393.21466 4056.43725 3397.10674 4056.46529 3397.35561 4056.54054 3397.57066 4056.66176 3397.76358 4056.82287 3397.92469 4056.89722 3397.97141 4057.01321 3398.08231 4057.07628 3398.22986 4057.07628 3398.39034 4057.01321 3398.53789 4056.89722 3398.64879 4056.82287 3398.69551 4056.66176 3398.85662 4056.54054 3399.04954 4056.46529 3399.26459 4056.43725 3399.51346 4056.43725 3403.40554 4056.46529 3403.65441 4056.54054 3403.86946 4056.66176 3404.06238 4056.82287 3404.22349 4057.01579 3404.34471 4057.23084 3404.41996 4057.47971 3404.448 4057.7063 3404.448 4057.85937 3404.47845 4057.98914 3404.56516 4058.07585 3404.69493 4058.1063 3404.848 4058.1063 3420.88961 4058.07585 3421.04268 4057.98914 3421.17245 4038.10995 3441.05164 4037.98018 3441.13835 4037.82711 3441.1688 4032.86917 3441.1688 4032.71982 3441.13987 4032.59208 3441.05728 4032.50441 3440.93297 4032.25856 3440.38671 4031.94893 3439.87452 4031.57982 3439.40339 4031.15661 3438.98018 4030.68548 3438.61107 4030.31865 3438.38931 4030.19412 3438.2709 4030.13076 3438.11116 4030.14028 3437.93959 4030.2209 3437.78783 4030.35775 3437.68391 4030.52558 3437.647 4031.78454 3437.647 4032.03341 3437.61896 4032.24846 3437.54371 4032.44138 3437.42249 4032.60249 3437.26138 4032.72371 3437.06846 4032.79896 3436.85341 4032.827 3436.60454 4032.827 3434.9085 4030.0885 3434.9085 4030.0885 3437.65584 4030.06077 3437.80219 4029.98141 3437.92825 4029.86143 3438.01653 4029.71747 3438.05479 4029.5695 3438.03773 4029.05611 3437.87775 4028.46741 3437.76987 4027.87 3437.73373 4027.27259 3437.76987 4026.68389 3437.87775 4026.1705 3438.03773 4026.02253 3438.05479 4025.87857 3438.01653 4025.75859 3437.92825 4025.67923 3437.80219 4025.6515 3437.65584 4025.6515 3434.9085 4022.913 3434.9085 4022.913 3436.60454 4022.94104 3436.85341 4023.01629 3437.06846 4023.13751 3437.26138 4023.29862 3437.42249 4023.49154 3437.54371 4023.70659 3437.61896 4023.95546 3437.647 4025.21442 3437.647 4025.38225 3437.68391 4025.5191 3437.78783 4025.59972 3437.93959 4025.60924 3438.11116 4025.54588 3438.2709 4025.42135 3438.38931 4025.05452 3438.61107 4024.58339 3438.98018 4024.16018 3439.40339 4023.79107 3439.87452 4023.48144 3440.38671 4023.23581 3440.93248 4023.05775 3441.50389 4022.94987 3442.09259 4022.91373 3442.69 4022.94987 3443.28741 4023.05775 3443.87611 4023.23581 3444.44752 4023.48144 3444.99329 4023.79107 3445.50548 4024.16018 3445.97661 4024.58339 3446.39982 4025.05452 3446.76893 4025.56671 3447.07856 4026.11248 3447.32419 4026.68389 3447.50225 4027.27259 3447.61013 4027.87 3447.64627 Z M 4079.93139 3422.22826 L 4080.18026 3422.2563 4084.07234 3422.2563 4084.32121 3422.22826 4084.53626 3422.15301 4084.72918 3422.03179 4084.89029 3421.87068 4085.01151 3421.67776 4085.08676 3421.46271 4085.1148 3421.21384 4085.1148 3417.71576 4085.08676 3417.46689 4085.01151 3417.25184 4084.89029 3417.05892 4084.72918 3416.89781 4084.53626 3416.77659 4084.32405 3416.70233 4084.00741 3416.67141 4083.86667 3416.6307 4083.75003 3416.54204 4083.67313 3416.41733 4083.6463 3416.2733 4083.6463 3408.39109 4083.67675 3408.23802 4083.76346 3408.10825 4086.92365 3404.94806 4087.05342 3404.86135 4087.20649 3404.8309 4089.6946 3404.8309 4089.84767 3404.86135 4089.97744 3404.94806 4090.06415 3405.07783 4090.0946 3405.2309 4090.0946 3405.45379 4090.12264 3405.70266 4090.19789 3405.91771 4090.31911 3406.11063 4090.48022 3406.27174 4090.67314 3406.39296 4090.88819 3406.46821 4091.13706 3406.49625 4095.02914 3406.49625 4095.27801 3406.46821 4095.49306 3406.39296 4095.68598 3406.27174 4095.84709 3406.11063 4095.96831 3405.91771 4096.04356 3405.70266 4096.0716 3405.45379 4096.0716 3401.16801 4096.04356 3400.91914 4095.96831 3400.70409 4095.84709 3400.51117 4095.68598 3400.35006 4095.49306 3400.22884 4095.27801 3400.15359 4095.02914 3400.12555 4091.13706 3400.12555 4090.88819 3400.15359 4090.67314 3400.22884 4090.48022 3400.35006 4090.31911 3400.51117 4090.19789 3400.70409 4090.12264 3400.91914 4090.0946 3401.16801 4090.0946 3401.3909 4090.06415 3401.54397 4089.97744 3401.67374 4089.84767 3401.76045 4089.6946 3401.7909 4087.20653 3401.7909 4087.05345 3401.76045 4086.92368 3401.67373 4084.95635 3399.70628 4084.86965 3399.57651 4084.8392 3399.42344 4084.8392 3397.19856 4084.81116 3396.94969 4084.73591 3396.73464 4084.61469 3396.54172 4084.45358 3396.38061 4084.26066 3396.25939 4084.04561 3396.18414 4083.79674 3396.1561 4079.90466 3396.1561 4079.65579 3396.18414 4079.44074 3396.25939 4079.24782 3396.38061 4079.08671 3396.54172 4078.96549 3396.73464 4078.89024 3396.94969 4078.8622 3397.19856 4078.8622 3400.30324 4078.89024 3400.55211 4078.96549 3400.76716 4079.08671 3400.96008 4079.24782 3401.12119 4079.44074 3401.24241 4079.65579 3401.31766 4079.90466 3401.3457 4082.1309 3401.3457 4082.28398 3401.37615 4082.41375 3401.46287 4083.97881 3403.02802 4084.06551 3403.15779 4084.09595 3403.31086 4084.06551 3403.46393 4083.9788 3403.5937 4081.06539 3406.5071 4080.86408 3406.75241 4080.72379 3407.01486 4080.6374 3407.29964 4080.6063 3407.61545 4080.6063 3416.2733 4080.57947 3416.41733 4080.50257 3416.54204 4080.38593 3416.6307 4080.24519 3416.67141 4079.92855 3416.70233 4079.71634 3416.77659 4079.52342 3416.89781 4079.36231 3417.05892 4079.24109 3417.25184 4079.16584 3417.46689 4079.1378 3417.71576 4079.1378 3421.21384 4079.16584 3421.46271 4079.24109 3421.67776 4079.36231 3421.87068 4079.52342 3422.03179 4079.71634 3422.15301 4079.93139 3422.22826 Z M 4025.6515 3430.4715 L 4025.6515 3427.733 4023.95546 3427.733 4023.70659 3427.76104 4023.49154 3427.83629 4023.29862 3427.95751 4023.13751 3428.11862 4023.01629 3428.31154 4022.94104 3428.52659 4022.913 3428.77546 4022.913 3430.4715 4025.6515 3430.4715 Z M 4032.827 3430.4715 L 4032.827 3428.77546 4032.79896 3428.52659 4032.72371 3428.31154 4032.60249 3428.11862 4032.44138 3427.95751 4032.24846 3427.83629 4032.03341 3427.76104 4031.78454 3427.733 4030.0885 3427.733 4030.0885 3430.4715 4032.827 3430.4715 Z M 4131.9611 3401.80105 L 4131.9611 3401.08926 4131.93306 3400.84039 4131.85781 3400.62534 4131.73659 3400.43242 4131.57548 3400.27131 4131.38256 3400.15009 4131.16751 3400.07484 4130.91864 3400.0468 4130.4037 3400.0468 4130.4037 3401.80105 4131.9611 3401.80105 Z M 4130.4037 3404.26955 L 4130.4037 3406.0238 4130.91864 3406.0238 4131.16751 3405.99576 4131.38256 3405.92051 4131.57548 3405.79929 4131.73659 3405.63818 4131.85781 3405.44526 4131.93306 3405.23021 4131.9611 3404.98134 4131.9611 3404.26955 4130.4037 3404.26955 Z M 4073.63615 3403.5883 L 4073.63615 3405.1457 4074.34794 3405.1457 4074.59681 3405.11766 4074.81186 3405.04241 4075.00478 3404.92119 4075.16589 3404.76008 4075.28711 3404.56716 4075.36236 3404.35211 4075.3904 3404.10324 4075.3904 3403.5883 4073.63615 3403.5883 Z M 4071.16765 3401.5135 L 4071.16765 3399.9561 4070.45586 3399.9561 4070.20699 3399.98414 4069.99194 3400.05939 4069.79902 3400.18061 4069.63791 3400.34172 4069.51669 3400.53464 4069.44144 3400.74969 4069.4134 3400.99856 4069.4134 3401.5135 4071.16765 3401.5135 Z M 4073.63615 3399.9561 L 4073.63615 3401.5135 4075.3904 3401.5135 4075.3904 3400.99856 4075.36236 3400.74969 4075.28711 3400.53464 4075.16589 3400.34172 4075.00478 3400.18061 4074.81186 3400.05939 4074.59681 3399.98414 4074.34794 3399.9561 4073.63615 3399.9561 Z " stroke-width="0" layerid="1" attachedcopperid="gge500" c_shapetype="line" id="gge500_0" class=""></path><polyline points="4077.087 3414.0668 4064.481 3401.4608 4059.6263 3401.4608" stroke-width="1"  stroke-linecap="round" fill="none" layerid="1" net="VCC" id="gge572" locked="0" /><polyline points="4086.9295 3414.0668 4087.6854 3413.3109 4093.9764 3413.3109" stroke-width="1"  stroke-linecap="round" fill="none" layerid="1" net="VCC" id="gge573" locked="0" /><polyline points="4082.1263 3444.9608 4093.9764 3433.1109 4093.9764 3413.3109" stroke-width="1"  stroke-linecap="round" fill="none" layerid="1" net="VCC" id="gge574" locked="0" /><polyline points="4082.1263 3444.9608 4125.6263 3444.9608" stroke-width="1"  stroke-linecap="round" fill="none" layerid="1" net="VCC" id="gge575" locked="0" /><polyline points="4027.8743 3442.6888 4038.6224 3442.6888 4059.6263 3421.6849 4059.6263 3401.4608" stroke-width="1"  stroke-linecap="round" fill="none" layerid="1" net="VCC" id="gge576" locked="0" /><polyline points="4125.6263 3419.4608 4125.5662 3393.5809" stroke-width="1"  stroke-linecap="round" fill="none" layerid="1" net="LED2_2" id="gge577" locked="0" /><polyline points="4125.6263 3438.662 4125.6263 3426.1578" stroke-width="1"  stroke-linecap="round" fill="none" layerid="1" net="R4_1" id="gge578" locked="0" /><polyline points="4082.1263 3438.662 4082.1263 3426.1578" stroke-width="1"  stroke-linecap="round" fill="none" layerid="1" net="R1_1" id="gge579" locked="0" /><polyline points="4082.1263 3419.465 4082.1263 3407.5958 4086.4112 3403.3109" stroke-width="1"  stroke-linecap="round" fill="none" layerid="1" net="LED1_2" id="gge580" locked="0" /><polyline points="4081.8514 3398.7508 4086.4112 3403.3109 4093.0833 3403.3109" stroke-width="1"  stroke-linecap="round" fill="none" layerid="1" net="LED1_2" id="gge581" locked="0" /><polyline points="4100.1702 3403.3109 4100.2752 3403.4159 4100.2752 3413.3109" stroke-width="1"  stroke-linecap="round" fill="none" layerid="1" net="R2_1" id="gge582" locked="0" /><polyline points="4100.1702 3403.3109 4100.4461 3403.035 4121.8861 3403.035" stroke-width="1"  stroke-linecap="round" fill="none" layerid="1" net="R2_1" id="gge583" locked="0" /><polyline points="4100.1693 3392.3109 4101.4442 3393.5858 4125.5662 3393.5858" stroke-width="1"  stroke-linecap="round" fill="none" layerid="1" net="LED2_2" id="gge584" locked="0" /><polyline points="4072.4022 3395.0709 4075.1622 3392.3109 4093.0824 3392.3109" stroke-width="1"  stroke-linecap="round" fill="none" layerid="1" net="R3_1" id="gge585" locked="0" /><polyline points="4059.6263 3395.161 4072.4063 3395.0709" stroke-width="1"  stroke-linecap="round" fill="none" layerid="1" net="R3_1" id="gge586" locked="0" /><g c_partid="part_pad" c_etype="pinpart" c_origin="4059.6226,3401.4594" layerid="1" number="2" net="VCC" plated ="Y"  id="gge718" locked="0" c_rotation="270" c_width="3.937" c_height="4.3307" title="VCC" c_shape="RECT" pasteexpansion="0" solderexpansion="0.2"><polygon  c_etype="pad_shell" points="4061.788 3399.4914 4061.788 3403.4284 4057.4572 3403.4284 4057.4572 3399.4914" layerid="1" stroke-width="0" /><circle c_etype="pad_hole" cx="4059.6226" cy="3401.4595" r="0" layerid="1" stroke-width="0"/></g><g c_partid="part_pad" c_etype="pinpart" c_origin="4059.6226,3395.1604" layerid="1" number="1" net="R3_1" plated ="Y"  id="gge733" locked="0" c_rotation="270" c_width="3.937" c_height="4.3307" title="R3_1" c_shape="RECT" pasteexpansion="0" solderexpansion="0.2"><polygon  c_etype="pad_shell" points="4061.788 3393.1922 4061.788 3397.1292 4057.4572 3397.1292 4057.4572 3393.1922" layerid="1" stroke-width="0" /><circle c_etype="pad_hole" cx="4059.6226" cy="3395.1607" r="0" layerid="1" stroke-width="0"/></g><g c_partid="part_pad" c_etype="pinpart" c_origin="4125.6226,3444.9594" layerid="1" number="2" net="VCC" plated ="Y"  id="gge784" locked="0" c_rotation="270" c_width="3.937" c_height="4.3307" title="VCC" c_shape="RECT" pasteexpansion="0" solderexpansion="0.2"><polygon  c_etype="pad_shell" points="4127.788 3442.9914 4127.788 3446.9284 4123.4572 3446.9284 4123.4572 3442.9914" layerid="1" stroke-width="0" /><circle c_etype="pad_hole" cx="4125.6226" cy="3444.9595" r="0" layerid="1" stroke-width="0"/></g><g c_partid="part_pad" c_etype="pinpart" c_origin="4125.6226,3438.6604" layerid="1" number="1" net="R4_1" plated ="Y"  id="gge799" locked="0" c_rotation="270" c_width="3.937" c_height="4.3307" title="R4_1" c_shape="RECT" pasteexpansion="0" solderexpansion="0.2"><polygon  c_etype="pad_shell" points="4127.788 3436.6922 4127.788 3440.6292 4123.4572 3440.6292 4123.4572 3436.6922" layerid="1" stroke-width="0" /><circle c_etype="pad_hole" cx="4125.6226" cy="3438.6607" r="0" layerid="1" stroke-width="0"/></g><g c_partid="part_pad" c_etype="pinpart" c_origin="4082.126,3419.465" layerid="1" number="2" net="LED1_2" plated ="Y"  id="gge13" locked="0" c_rotation="0" c_width="3.937" c_height="3.543" title="LED1_2" c_shape="RECT" pasteexpansion="0" solderexpansion="0.4"><polygon  c_etype="pad_shell" points="4080.1578 3417.6933 4084.0948 3417.6933 4084.0948 3421.2363 4080.1578 3421.2363" layerid="1" stroke-width="0" /><circle c_etype="pad_hole" cx="4082.1263" cy="3419.4648" r="0" layerid="1" stroke-width="0"/></g><g c_partid="part_pad" c_etype="pinpart" c_origin="4082.126,3426.158" layerid="1" number="1" net="R1_1" plated ="Y"  id="gge18" locked="0" c_rotation="0" c_width="3.937" c_height="3.543" title="R1_1" c_shape="RECT" pasteexpansion="0" solderexpansion="0.4"><polygon  c_etype="pad_shell" points="4080.1578 3424.3862 4084.0948 3424.3862 4084.0948 3427.9292 4080.1578 3427.9292" layerid="1" stroke-width="0" /><circle c_etype="pad_hole" cx="4082.1263" cy="3426.1577" r="0" layerid="1" stroke-width="0"/></g><g c_partid="part_pad" c_etype="pinpart" c_origin="4125.626,3419.465" layerid="1" number="2" net="LED2_2" plated ="Y"  id="gge35" locked="0" c_rotation="0" c_width="3.937" c_height="3.543" title="LED2_2" c_shape="RECT" pasteexpansion="0" solderexpansion="0.4"><polygon  c_etype="pad_shell" points="4123.6578 3417.6933 4127.5948 3417.6933 4127.5948 3421.2363 4123.6578 3421.2363" layerid="1" stroke-width="0" /><circle c_etype="pad_hole" cx="4125.6263" cy="3419.4648" r="0" layerid="1" stroke-width="0"/></g><g c_partid="part_pad" c_etype="pinpart" c_origin="4125.626,3426.158" layerid="1" number="1" net="R4_1" plated ="Y"  id="gge40" locked="0" c_rotation="0" c_width="3.937" c_height="3.543" title="R4_1" c_shape="RECT" pasteexpansion="0" solderexpansion="0.4"><polygon  c_etype="pad_shell" points="4123.6578 3424.3862 4127.5948 3424.3862 4127.5948 3427.9292 4123.6578 3427.9292" layerid="1" stroke-width="0" /><circle c_etype="pad_hole" cx="4125.6263" cy="3426.1577" r="0" layerid="1" stroke-width="0"/></g><g c_partid="part_pad" c_etype="pinpart" c_origin="4093.976,3413.311" layerid="1" number="2" net="VCC" plated ="Y"  id="gge101" locked="0" c_rotation="180" c_width="3.937" c_height="4.3307" title="VCC" c_shape="RECT" pasteexpansion="0" solderexpansion="0.4"><polygon  c_etype="pad_shell" points="4095.9449 3415.4763 4092.0079 3415.4763 4092.0079 3411.1455 4095.9449 3411.1455" layerid="1" stroke-width="0" /><circle c_etype="pad_hole" cx="4093.9768" cy="3413.3109" r="0" layerid="1" stroke-width="0"/></g><g c_partid="part_pad" c_etype="pinpart" c_origin="4100.276,3413.311" layerid="1" number="1" net="R2_1" plated ="Y"  id="gge106" locked="0" c_rotation="180" c_width="3.937" c_height="4.3307" title="R2_1" c_shape="RECT" pasteexpansion="0" solderexpansion="0.4"><polygon  c_etype="pad_shell" points="4102.2441 3415.4763 4098.3071 3415.4763 4098.3071 3411.1455 4102.2441 3411.1455" layerid="1" stroke-width="0" /><circle c_etype="pad_hole" cx="4100.2756" cy="3413.3109" r="0" layerid="1" stroke-width="0"/></g><g c_partid="part_pad" c_etype="pinpart" c_origin="4082.126,3444.961" layerid="1" number="2" net="VCC" plated ="Y"  id="gge173" locked="0" c_rotation="270" c_width="3.937" c_height="4.3307" title="VCC" c_shape="RECT" pasteexpansion="0" solderexpansion="0.4"><polygon  c_etype="pad_shell" points="4084.2917 3442.9923 4084.2917 3446.9293 4079.9609 3446.9293 4079.9609 3442.9923" layerid="1" stroke-width="0" /><circle c_etype="pad_hole" cx="4082.1263" cy="3444.9604" r="0" layerid="1" stroke-width="0"/></g><g c_partid="part_pad" c_etype="pinpart" c_origin="4082.126,3438.662" layerid="1" number="1" net="R1_1" plated ="Y"  id="gge178" locked="0" c_rotation="270" c_width="3.937" c_height="4.3307" title="R1_1" c_shape="RECT" pasteexpansion="0" solderexpansion="0.4"><polygon  c_etype="pad_shell" points="4084.2917 3436.6931 4084.2917 3440.6301 4079.9609 3440.6301 4079.9609 3436.6931" layerid="1" stroke-width="0" /><circle c_etype="pad_hole" cx="4082.1263" cy="3438.6616" r="0" layerid="1" stroke-width="0"/></g><g c_partid="part_pad" c_etype="pinpart" c_origin="4121.886,3403.035" layerid="1" number="2" net="R2_1" plated ="Y"  id="gge218" locked="0" c_rotation="0" c_width="3.1496" c_height="3.937" title="R2_1" c_shape="RECT" pasteexpansion="0" solderexpansion="0.4"><polygon  c_etype="pad_shell" points="4120.3113 3401.0663 4123.4613 3401.0663 4123.4613 3405.0033 4120.3113 3405.0033" layerid="1" stroke-width="0" /><circle c_etype="pad_hole" cx="4121.8863" cy="3403.0353" r="0" layerid="1" stroke-width="0"/></g><g c_partid="part_pad" c_etype="pinpart" c_origin="4129.366,3403.035" layerid="1" number="1" net="GND" plated ="Y"  id="gge223" locked="0" c_rotation="0" c_width="3.1496" c_height="3.937" title="GND" c_shape="RECT" pasteexpansion="0" solderexpansion="0.4"><polygon  c_etype="pad_shell" points="4127.7913 3401.0663 4130.9413 3401.0663 4130.9413 3405.0033 4127.7913 3405.0033" layerid="1" stroke-width="0" /><circle c_etype="pad_hole" cx="4129.3663" cy="3403.0353" r="0" layerid="1" stroke-width="0"/></g><g c_partid="part_pad" c_etype="pinpart" c_origin="4125.566,3393.586" layerid="1" number="3" net="LED2_2" plated ="Y"  id="gge228" locked="0" c_rotation="0" c_width="3.1496" c_height="3.937" title="LED2_2" c_shape="RECT" pasteexpansion="0" solderexpansion="0.4"><polygon  c_etype="pad_shell" points="4123.9913 3391.6175 4127.1413 3391.6175 4127.1413 3395.5545 4123.9913 3395.5545" layerid="1" stroke-width="0" /><circle c_etype="pad_hole" cx="4125.5663" cy="3393.5865" r="0" layerid="1" stroke-width="0"/></g><g c_partid="part_pad" c_etype="pinpart" c_origin="4072.402,3395.071" layerid="1" number="2" net="R3_1" plated ="Y"  id="gge248" locked="0" c_rotation="270" c_width="3.1496" c_height="3.937" title="R3_1" c_shape="RECT" pasteexpansion="0" solderexpansion="0.4"><polygon  c_etype="pad_shell" points="4074.3709 3393.4959 4074.3709 3396.6459 4070.4339 3396.6459 4070.4339 3393.4959" layerid="1" stroke-width="0" /><circle c_etype="pad_hole" cx="4072.4019" cy="3395.0709" r="0" layerid="1" stroke-width="0"/></g><g c_partid="part_pad" c_etype="pinpart" c_origin="4072.402,3402.551" layerid="1" number="1" net="GND" plated ="Y"  id="gge253" locked="0" c_rotation="270" c_width="3.1496" c_height="3.937" title="GND" c_shape="RECT" pasteexpansion="0" solderexpansion="0.4"><polygon  c_etype="pad_shell" points="4074.3709 3400.9759 4074.3709 3404.1259 4070.4339 3404.1259 4070.4339 3400.9759" layerid="1" stroke-width="0" /><circle c_etype="pad_hole" cx="4072.4019" cy="3402.5509" r="0" layerid="1" stroke-width="0"/></g><g c_partid="part_pad" c_etype="pinpart" c_origin="4081.851,3398.751" layerid="1" number="3" net="LED1_2" plated ="Y"  id="gge258" locked="0" c_rotation="270" c_width="3.1496" c_height="3.937" title="LED1_2" c_shape="RECT" pasteexpansion="0" solderexpansion="0.4"><polygon  c_etype="pad_shell" points="4083.8197 3397.1759 4083.8197 3400.3259 4079.8827 3400.3259 4079.8827 3397.1759" layerid="1" stroke-width="0" /><circle c_etype="pad_hole" cx="4081.8507" cy="3398.7509" r="0" layerid="1" stroke-width="0"/></g><g c_partid="part_pad" c_etype="pinpart" c_origin="4093.083,3403.311" layerid="1" number="1" net="LED1_2" plated ="Y"  id="gge303" locked="0" c_rotation="0" c_width="3.937" c_height="4.3307" title="LED1_2" c_shape="RECT" pasteexpansion="0" solderexpansion="0.4"><polygon  c_etype="pad_shell" points="4091.1146 3401.1455 4095.0516 3401.1455 4095.0516 3405.4763 4091.1146 3405.4763" layerid="1" stroke-width="0" /><circle c_etype="pad_hole" cx="4093.0831" cy="3403.3109" r="0" layerid="1" stroke-width="0"/></g><g c_partid="part_pad" c_etype="pinpart" c_origin="4100.17,3403.311" layerid="1" number="2" net="R2_1" plated ="Y"  id="gge308" locked="0" c_rotation="0" c_width="3.937" c_height="4.3307" title="R2_1" c_shape="RECT" pasteexpansion="0" solderexpansion="0.4"><polygon  c_etype="pad_shell" points="4098.2016 3401.1455 4102.1386 3401.1455 4102.1386 3405.4763 4098.2016 3405.4763" layerid="1" stroke-width="0" /><circle c_etype="pad_hole" cx="4100.1697" cy="3403.3109" r="0" layerid="1" stroke-width="0"/></g><g c_partid="part_pad" c_etype="pinpart" c_origin="4100.17,3392.311" layerid="1" number="1" net="LED2_2" plated ="Y"  id="gge335" locked="0" c_rotation="180" c_width="3.937" c_height="4.3307" title="LED2_2" c_shape="RECT" pasteexpansion="0" solderexpansion="0.4"><polygon  c_etype="pad_shell" points="4102.138 3394.4763 4098.201 3394.4763 4098.201 3390.1455 4102.138 3390.1455" layerid="1" stroke-width="0" /><circle c_etype="pad_hole" cx="4100.1695" cy="3392.3109" r="0" layerid="1" stroke-width="0"/></g><g c_partid="part_pad" c_etype="pinpart" c_origin="4093.083,3392.311" layerid="1" number="2" net="R3_1" plated ="Y"  id="gge340" locked="0" c_rotation="180" c_width="3.937" c_height="4.3307" title="R3_1" c_shape="RECT" pasteexpansion="0" solderexpansion="0.4"><polygon  c_etype="pad_shell" points="4095.051 3394.4763 4091.114 3394.4763 4091.114 3390.1455 4095.051 3390.1455" layerid="1" stroke-width="0" /><circle c_etype="pad_hole" cx="4093.0829" cy="3392.3109" r="0" layerid="1" stroke-width="0"/></g><g c_partid="part_pad" c_etype="pinpart" c_origin="4027.87,3432.69" layerid="11" number="1" net="GND" plated ="Y"  id="gge652" locked="0" c_rotation="270" c_width="7.874" c_height="7.874" title="GND" c_shape="RECT" pasteexpansion="0" solderexpansion="0.2"><polygon  c_etype="pad_shell" points="4031.807 3428.753 4031.807 3436.627 4023.933 3436.627 4023.933 3428.753" layerid="11" stroke-width="0" /><circle c_etype="pad_hole" cx="4027.87" cy="3432.69" r="2.3622" layerid="11" stroke-width="0"/></g><g c_partid="part_pad" c_etype="pinpart" c_origin="4027.87,3442.69" layerid="11" number="2" net="VCC" plated ="Y"  id="gge667" locked="0" c_rotation="270" c_width="7.874" c_height="7.874" title="VCC" c_shape="ELLIPSE" pasteexpansion="0" solderexpansion="0.2"><ellipse c_etype="pad_shell" cx="4027.87" cy="3442.69" rx="3.937" ry="3.937" layerid="11" stroke-width="0"/><circle c_etype="pad_hole" cx="4027.87" cy="3442.69" r="2.3622" layerid="11" stroke-width="0"/></g><g c_partid="part_via" c_etype="pinpart" c_shapetype="group" net="VCC" c_origin="4086.929,3414.067" layerid="11" id="gge477" locked="0" solderexpansion=""><circle cx="4086.929" cy="3414.067" r="1.378" stroke-width="0" c_etype="pad_shell"/><circle cx="4086.929" cy="3414.067" r="0.689"  stroke-width="0" c_etype="pad_hole"/></g><g c_partid="part_via" c_etype="pinpart" c_shapetype="group" net="VCC" c_origin="4077.087,3414.067" layerid="11" id="gge480" locked="0" solderexpansion=""><circle cx="4077.087" cy="3414.067" r="1.378" stroke-width="0" c_etype="pad_shell"/><circle cx="4077.087" cy="3414.067" r="0.689"  stroke-width="0" c_etype="pad_hole"/></g><g c_partid="part_via" c_etype="pinpart" c_shapetype="group" net="GND" c_origin="4031.811,3386.5079" layerid="11" id="gge522" locked="0" solderexpansion=""><circle cx="4031.811" cy="3386.5079" r="1.378" stroke-width="0" c_etype="pad_shell"/><circle cx="4031.811" cy="3386.5079" r="0.689"  stroke-width="0" c_etype="pad_hole"/></g><g c_partid="part_via" c_etype="pinpart" c_shapetype="group" net="GND" c_origin="4023.937,3394.382" layerid="11" id="gge530" locked="0" solderexpansion=""><circle cx="4023.937" cy="3394.382" r="1.378" stroke-width="0" c_etype="pad_shell"/><circle cx="4023.937" cy="3394.382" r="0.689"  stroke-width="0" c_etype="pad_hole"/></g><g c_partid="part_via" c_etype="pinpart" c_shapetype="group" net="GND" c_origin="4023.937,3386.508" layerid="11" id="gge536" locked="0" solderexpansion=""><circle cx="4023.937" cy="3386.508" r="1.378" stroke-width="0" c_etype="pad_shell"/><circle cx="4023.937" cy="3386.508" r="0.689"  stroke-width="0" c_etype="pad_hole"/></g><g c_partid="part_via" c_etype="pinpart" c_shapetype="group" net="GND" c_origin="4145.984,3386.508" layerid="11" id="gge542" locked="0" solderexpansion=""><circle cx="4145.984" cy="3386.508" r="1.378" stroke-width="0" c_etype="pad_shell"/><circle cx="4145.984" cy="3386.508" r="0.689"  stroke-width="0" c_etype="pad_hole"/></g><g c_partid="part_via" c_etype="pinpart" c_shapetype="group" net="GND" c_origin="4138.11,3386.508" layerid="11" id="gge548" locked="0" solderexpansion=""><circle cx="4138.11" cy="3386.508" r="1.378" stroke-width="0" c_etype="pad_shell"/><circle cx="4138.11" cy="3386.508" r="0.689"  stroke-width="0" c_etype="pad_hole"/></g><g c_partid="part_via" c_etype="pinpart" c_shapetype="group" net="GND" c_origin="4145.984,3394.382" layerid="11" id="gge553" locked="0" solderexpansion=""><circle cx="4145.984" cy="3394.382" r="1.378" stroke-width="0" c_etype="pad_shell"/><circle cx="4145.984" cy="3394.382" r="0.689"  stroke-width="0" c_etype="pad_hole"/></g><polyline points="4032.87 3447.69 4022.87 3447.69 4022.87 3427.69 4032.87 3427.69 4032.87 3435.19" stroke-width="0.8"  stroke-linecap="round" fill="none" layerid="3" net="" id="gge634" locked="0" /><polyline points="4032.87 3447.69 4032.87 3435.19" stroke-width="0.79921"  stroke-linecap="round" fill="none" layerid="3" net="" id="gge637" locked="0" /><polyline points="4062.7723 3392.2078 4056.4729 3392.2078" stroke-width="1"  stroke-linecap="round" fill="none" layerid="3" net="" id="gge694" locked="0" /><polyline points="4056.493 3399.4937 4056.493 3404.4148" stroke-width="1"  stroke-linecap="round" fill="none" layerid="3" net="" id="gge697" locked="0" /><polyline points="4062.7924 3399.4937 4062.7924 3404.4148" stroke-width="1"  stroke-linecap="round" fill="none" layerid="3" net="" id="gge700" locked="0" /><polyline points="4056.4729 3397.1292 4056.4729 3392.2078" stroke-width="1"  stroke-linecap="round" fill="none" layerid="3" net="" id="gge703" locked="0" /><polyline points="4062.7723 3397.1292 4062.7723 3392.2078" stroke-width="1"  stroke-linecap="round" fill="none" layerid="3" net="" id="gge706" locked="0" /><polyline points="4062.7924 3404.4148 4056.493 3404.4148" stroke-width="1"  stroke-linecap="round" fill="none" layerid="3" net="" id="gge709" locked="0" /><polyline points="4128.7723 3435.7078 4122.4729 3435.7078" stroke-width="1"  stroke-linecap="round" fill="none" layerid="3" net="" id="gge760" locked="0" /><polyline points="4122.493 3442.9937 4122.493 3447.9148" stroke-width="1"  stroke-linecap="round" fill="none" layerid="3" net="" id="gge763" locked="0" /><polyline points="4128.7924 3442.9937 4128.7924 3447.9148" stroke-width="1"  stroke-linecap="round" fill="none" layerid="3" net="" id="gge766" locked="0" /><polyline points="4122.4729 3440.6292 4122.4729 3435.7078" stroke-width="1"  stroke-linecap="round" fill="none" layerid="3" net="" id="gge769" locked="0" /><polyline points="4128.7723 3440.6292 4128.7723 3435.7078" stroke-width="1"  stroke-linecap="round" fill="none" layerid="3" net="" id="gge772" locked="0" /><polyline points="4128.7924 3447.9148 4122.493 3447.9148" stroke-width="1"  stroke-linecap="round" fill="none" layerid="3" net="" id="gge775" locked="0" /><polyline points="4079.2523 3421.3542 4079.2523 3416.8267 4084.9609 3416.8267 4084.9609 3421.5511" stroke-width="0.5906"  stroke-linecap="round" fill="none" layerid="3" net="" id="gge7" locked="0" /><polyline points="4085.0003 3423.992 4085.0003 3428.8739 4079.2917 3428.8739 4079.2917 3423.992" stroke-width="0.5906"  stroke-linecap="round" fill="none" layerid="3" net="" id="gge8" locked="0" /><polyline points="4079.2523 3416.8267 4079.2523 3416.7085 4080.0397 3415.9211 4084.0554 3415.9211 4084.1735 3416.0393 4084.9609 3416.8267" stroke-width="0.5906"  stroke-linecap="round" fill="none" layerid="3" net="" id="gge9" locked="0" /><polyline points="4122.7523 3421.3542 4122.7523 3416.8267 4128.4609 3416.8267 4128.4609 3421.5511" stroke-width="0.5906"  stroke-linecap="round" fill="none" layerid="3" net="" id="gge29" locked="0" /><polyline points="4128.5003 3423.992 4128.5003 3428.8739 4122.7917 3428.8739 4122.7917 3423.992" stroke-width="0.5906"  stroke-linecap="round" fill="none" layerid="3" net="" id="gge30" locked="0" /><polyline points="4122.7523 3416.8267 4122.7523 3416.7085 4123.5397 3415.9211 4127.5554 3415.9211 4127.6735 3416.0393 4128.4609 3416.8267" stroke-width="0.5906"  stroke-linecap="round" fill="none" layerid="3" net="" id="gge31" locked="0" /><polyline points="4103.2285 3416.4606 4103.2285 3410.1612" stroke-width="1"  stroke-linecap="round" fill="none" layerid="3" net="" id="gge93" locked="0" /><polyline points="4095.9426 3410.1813 4091.0215 3410.1813" stroke-width="1"  stroke-linecap="round" fill="none" layerid="3" net="" id="gge94" locked="0" /><polyline points="4095.9426 3416.4807 4091.0215 3416.4807" stroke-width="1"  stroke-linecap="round" fill="none" layerid="3" net="" id="gge95" locked="0" /><polyline points="4098.3071 3410.1612 4103.2285 3410.1612" stroke-width="1"  stroke-linecap="round" fill="none" layerid="3" net="" id="gge96" locked="0" /><polyline points="4098.3071 3416.4606 4103.2285 3416.4606" stroke-width="1"  stroke-linecap="round" fill="none" layerid="3" net="" id="gge97" locked="0" /><polyline points="4091.0215 3416.4807 4091.0215 3410.1813" stroke-width="1"  stroke-linecap="round" fill="none" layerid="3" net="" id="gge98" locked="0" /><polyline points="4085.276 3435.7087 4078.9766 3435.7087" stroke-width="1"  stroke-linecap="round" fill="none" layerid="3" net="" id="gge165" locked="0" /><polyline points="4078.9967 3442.9946 4078.9967 3447.9157" stroke-width="1"  stroke-linecap="round" fill="none" layerid="3" net="" id="gge166" locked="0" /><polyline points="4085.2961 3442.9946 4085.2961 3447.9157" stroke-width="1"  stroke-linecap="round" fill="none" layerid="3" net="" id="gge167" locked="0" /><polyline points="4078.9766 3440.6301 4078.9766 3435.7087" stroke-width="1"  stroke-linecap="round" fill="none" layerid="3" net="" id="gge168" locked="0" /><polyline points="4085.276 3440.6301 4085.276 3435.7087" stroke-width="1"  stroke-linecap="round" fill="none" layerid="3" net="" id="gge169" locked="0" /><polyline points="4085.2961 3447.9157 4078.9967 3447.9157" stroke-width="1"  stroke-linecap="round" fill="none" layerid="3" net="" id="gge170" locked="0" /><polyline points="4124.3712 3401.4605 4126.8812 3401.4605" stroke-width="1"  stroke-linecap="round" fill="none" layerid="3" net="" id="gge209" locked="0" /><polyline points="4119.327 3401.4605 4119.4012 3401.4605" stroke-width="1"  stroke-linecap="round" fill="none" layerid="3" net="" id="gge210" locked="0" /><polyline points="4128.0514 3395.1612 4131.9254 3395.1612" stroke-width="1"  stroke-linecap="round" fill="none" layerid="3" net="" id="gge211" locked="0" /><polyline points="4119.327 3395.1612 4123.0814 3395.1612" stroke-width="1"  stroke-linecap="round" fill="none" layerid="3" net="" id="gge212" locked="0" /><polyline points="4131.9254 3395.1612 4131.9254 3401.4605" stroke-width="1"  stroke-linecap="round" fill="none" layerid="3" net="" id="gge213" locked="0" /><polyline points="4119.327 3395.1612 4119.327 3401.4605" stroke-width="1"  stroke-linecap="round" fill="none" layerid="3" net="" id="gge214" locked="0" /><polyline points="4131.8514 3401.4605 4131.9254 3401.4605" stroke-width="1"  stroke-linecap="round" fill="none" layerid="3" net="" id="gge215" locked="0" /><polyline points="4073.9767 3397.5558 4073.9767 3400.0658" stroke-width="1"  stroke-linecap="round" fill="none" layerid="3" net="" id="gge239" locked="0" /><polyline points="4073.9767 3392.5116 4073.9767 3392.5858" stroke-width="1"  stroke-linecap="round" fill="none" layerid="3" net="" id="gge240" locked="0" /><polyline points="4080.276 3401.236 4080.276 3405.11" stroke-width="1"  stroke-linecap="round" fill="none" layerid="3" net="" id="gge241" locked="0" /><polyline points="4080.276 3392.5116 4080.276 3396.266" stroke-width="1"  stroke-linecap="round" fill="none" layerid="3" net="" id="gge242" locked="0" /><polyline points="4080.276 3405.11 4073.9767 3405.11" stroke-width="1"  stroke-linecap="round" fill="none" layerid="3" net="" id="gge243" locked="0" /><polyline points="4080.276 3392.5116 4073.9767 3392.5116" stroke-width="1"  stroke-linecap="round" fill="none" layerid="3" net="" id="gge244" locked="0" /><polyline points="4073.9767 3405.036 4073.9767 3405.11" stroke-width="1"  stroke-linecap="round" fill="none" layerid="3" net="" id="gge245" locked="0" /><polyline points="4103.1224 3400.9486 4103.1224 3405.6731" stroke-width="1"  stroke-linecap="round" fill="none" layerid="3" net="" id="gge287" locked="0" /><polyline points="4095.0516 3400.1612 4091.1145 3400.1612" stroke-width="1"  stroke-linecap="round" fill="none" layerid="3" net="" id="gge288" locked="0" /><polyline points="4095.0516 3406.4606 4091.1145 3406.4606" stroke-width="1"  stroke-linecap="round" fill="none" layerid="3" net="" id="gge289" locked="0" /><polyline points="4098.2015 3400.1612 4102.1381 3400.1612" stroke-width="1"  stroke-linecap="round" fill="none" layerid="3" net="" id="gge290" locked="0" /><polyline points="4098.2015 3406.4606 4102.1381 3406.4606" stroke-width="1"  stroke-linecap="round" fill="none" layerid="3" net="" id="gge291" locked="0" /><polyline points="4090.1302 3400.9486 4090.1302 3405.6731" stroke-width="1"  stroke-linecap="round" fill="none" layerid="3" net="" id="gge292" locked="0" /><polyline points="4090.9176 3400.1612 4091.1145 3400.1612" stroke-width="1"  stroke-linecap="round" fill="none" layerid="3" net="" id="gge293" locked="0" /><polyline points="4090.9177 3406.4606 4091.1145 3406.4606" stroke-width="1"  stroke-linecap="round" fill="none" layerid="3" net="" id="gge294" locked="0" /><polyline points="4102.335 3400.1612 4102.1381 3400.1612" stroke-width="1"  stroke-linecap="round" fill="none" layerid="3" net="" id="gge295" locked="0" /><polyline points="4102.3349 3406.4606 4102.1381 3406.4606" stroke-width="1"  stroke-linecap="round" fill="none" layerid="3" net="" id="gge296" locked="0" /><polyline points="4090.1302 3394.6732 4090.1302 3389.9487" stroke-width="1"  stroke-linecap="round" fill="none" layerid="3" net="" id="gge319" locked="0" /><polyline points="4098.201 3395.4606 4102.1381 3395.4606" stroke-width="1"  stroke-linecap="round" fill="none" layerid="3" net="" id="gge320" locked="0" /><polyline points="4098.201 3389.1612 4102.1381 3389.1612" stroke-width="1"  stroke-linecap="round" fill="none" layerid="3" net="" id="gge321" locked="0" /><polyline points="4095.0511 3395.4606 4091.1145 3395.4606" stroke-width="1"  stroke-linecap="round" fill="none" layerid="3" net="" id="gge322" locked="0" /><polyline points="4095.0511 3389.1612 4091.1145 3389.1612" stroke-width="1"  stroke-linecap="round" fill="none" layerid="3" net="" id="gge323" locked="0" /><polyline points="4103.1224 3394.6732 4103.1224 3389.9487" stroke-width="1"  stroke-linecap="round" fill="none" layerid="3" net="" id="gge324" locked="0" /><polyline points="4102.335 3395.4606 4102.1381 3395.4606" stroke-width="1"  stroke-linecap="round" fill="none" layerid="3" net="" id="gge325" locked="0" /><polyline points="4102.3349 3389.1612 4102.1381 3389.1612" stroke-width="1"  stroke-linecap="round" fill="none" layerid="3" net="" id="gge326" locked="0" /><polyline points="4090.9176 3395.4606 4091.1145 3395.4606" stroke-width="1"  stroke-linecap="round" fill="none" layerid="3" net="" id="gge327" locked="0" /><polyline points="4090.9177 3389.1612 4091.1145 3389.1612" stroke-width="1"  stroke-linecap="round" fill="none" layerid="3" net="" id="gge328" locked="0" /><g c_partid="part_pcbtext" c_etype="pinpart" c_origin="4036.126,3446.311" c_rotation="0" c_mirror="0" id="gge363" locked="0" layerid="3" c_shapetype="group" ><path c_fontsize="5.9055" c_fontfamily="" c_text="VCC" d="M 4036.1263 3440.3509 L 4038.2763 3445.9909 M 4040.4163 3440.3509 L 4038.2763 3445.9909 M 4046.2163 3441.6909 L 4045.9463 3441.1609 L 4045.4163 3440.6209 L 4044.8763 3440.3509 L 4043.8063 3440.3509 L 4043.2663 3440.6209 L 4042.7263 3441.1609 L 4042.4663 3441.6909 L 4042.1963 3442.5009 L 4042.1963 3443.8409 L 4042.4663 3444.6509 L 4042.7263 3445.1809 L 4043.2663 3445.7209 L 4043.8063 3445.9909 L 4044.8763 3445.9909 L 4045.4163 3445.7209 L 4045.9463 3445.1809 L 4046.2163 3444.6509 M 4052.0163 3441.6909 L 4051.7463 3441.1609 L 4051.2163 3440.6209 L 4050.6763 3440.3509 L 4049.6063 3440.3509 L 4049.0663 3440.6209 L 4048.5263 3441.1609 L 4048.2563 3441.6909 L 4047.9863 3442.5009 L 4047.9863 3443.8409 L 4048.2563 3444.6509 L 4048.5263 3445.1809 L 4049.0663 3445.7209 L 4049.6063 3445.9909 L 4050.6763 3445.9909 L 4051.2163 3445.7209 L 4051.7463 3445.1809 L 4052.0163 3444.6509" fill="none"  stroke-width="0.8"  /></g><g c_partid="part_pcbtext" c_etype="pinpart" c_origin="4036.126,3435.811" c_rotation="0" c_mirror="0" id="gge361" locked="0" layerid="3" c_shapetype="group" ><path c_fontsize="5.9055" c_fontfamily="" c_text="GND" d="M 4040.1563 3431.1909 L 4039.8863 3430.6609 L 4039.3463 3430.1209 L 4038.8063 3429.8509 L 4037.7363 3429.8509 L 4037.1963 3430.1209 L 4036.6663 3430.6609 L 4036.3963 3431.1909 L 4036.1263 3432.0009 L 4036.1263 3433.3409 L 4036.3963 3434.1509 L 4036.6663 3434.6809 L 4037.1963 3435.2209 L 4037.7363 3435.4909 L 4038.8063 3435.4909 L 4039.3463 3435.2209 L 4039.8863 3434.6809 L 4040.1563 3434.1509 L 4040.1563 3433.3409 M 4038.8063 3433.3409 L 4040.1563 3433.3409 M 4041.9263 3429.8509 L 4041.9263 3435.4909 M 4041.9263 3429.8509 L 4045.6863 3435.4909 M 4045.6863 3429.8509 L 4045.6863 3435.4909 M 4047.4563 3429.8509 L 4047.4563 3435.4909 M 4047.4563 3429.8509 L 4049.3363 3429.8509 L 4050.1363 3430.1209 L 4050.6763 3430.6609 L 4050.9463 3431.1909 L 4051.2163 3432.0009 L 4051.2163 3433.3409 L 4050.9463 3434.1509 L 4050.6763 3434.6809 L 4050.1363 3435.2209 L 4049.3363 3435.4909 L 4047.4563 3435.4909" fill="none"  stroke-width="0.8"  /></g><g c_partid="part_pcbtext" c_etype="" c_origin="4045.164,3479.489" c_rotation="90" c_mirror="0" id="gge185" locked="0" layerid="3" c_shapetype="group" display="none"><path c_fontsize="4.5" c_fontfamily="" c_text="2.54mm 1*2P" d="M 4041.645 3479.283L4041.445 3479.283 L4041.035 3479.083 L4040.825 3478.873 L4040.625 3478.463 L4040.625 3477.653 L4040.825 3477.243 L4041.035 3477.033 L4041.445 3476.833 L4041.855 3476.833 L4042.255 3477.033 L4042.875 3477.443 L4044.915 3479.493 L4044.915 3476.623 M 4043.895 3475.073L4044.105 3475.273 L4044.305 3475.073 L4044.105 3474.863 L4043.895 3475.073 M 4040.625 3471.063L4040.625 3473.103 L4042.465 3473.313 L4042.255 3473.103 L4042.055 3472.493 L4042.055 3471.883 L4042.255 3471.263 L4042.665 3470.853 L4043.285 3470.653 L4043.695 3470.653 L4044.305 3470.853 L4044.715 3471.263 L4044.915 3471.883 L4044.915 3472.493 L4044.715 3473.103 L4044.505 3473.313 L4044.105 3473.513 M 4040.625 3467.253L4043.485 3469.303 L4043.485 3466.233 M 4040.625 3467.253L4044.915 3467.253 M 4042.055 3464.883L4044.915 3464.883 M 4042.875 3464.883L4042.255 3464.273 L4042.055 3463.863 L4042.055 3463.253 L4042.255 3462.843 L4042.875 3462.633 L4044.915 3462.633 M 4042.875 3462.633L4042.255 3462.023 L4042.055 3461.613 L4042.055 3461.003 L4042.255 3460.593 L4042.875 3460.383 L4044.915 3460.383 M 4042.055 3459.033L4044.915 3459.033 M 4042.875 3459.033L4042.255 3458.423 L4042.055 3458.013 L4042.055 3457.403 L4042.255 3456.993 L4042.875 3456.783 L4044.915 3456.783 M 4042.875 3456.783L4042.255 3456.173 L4042.055 3455.763 L4042.055 3455.153 L4042.255 3454.743 L4042.875 3454.533 L4044.915 3454.533 M 4041.445 3450.033L4041.235 3449.623 L4040.625 3449.013 L4044.915 3449.013 M 4041.855 3446.643L4044.305 3446.643 M 4042.465 3447.663L4043.695 3445.613 M 4042.465 3445.613L4043.695 3447.663 M 4041.645 3444.063L4041.445 3444.063 L4041.035 3443.853 L4040.825 3443.653 L4040.625 3443.243 L4040.625 3442.423 L4040.825 3442.013 L4041.035 3441.813 L4041.445 3441.603 L4041.855 3441.603 L4042.255 3441.813 L4042.875 3442.223 L4044.915 3444.263 L4044.915 3441.403 M 4040.625 3440.053L4044.915 3440.053 M 4040.625 3440.053L4040.625 3438.213 L4040.825 3437.603 L4041.035 3437.393 L4041.445 3437.193 L4042.055 3437.193 L4042.465 3437.393 L4042.665 3437.603 L4042.875 3438.213 L4042.875 3440.053 " fill="none"  stroke-width="0.6" c_note="note_name" /></g><g c_partid="part_pcbtext" c_etype="" c_origin="4033.374,3437.189" c_rotation="270" c_mirror="0" id="gge187" locked="0" layerid="3" c_shapetype="group" display="none"><path c_fontsize="4.5" c_fontfamily="" c_text="P1" d="M 4037.913 3437.185L4033.623 3437.185 M 4037.913 3437.185L4037.913 3439.025 L4037.713 3439.645 L4037.503 3439.845 L4037.093 3440.055 L4036.483 3440.055 L4036.073 3439.845 L4035.873 3439.645 L4035.663 3439.025 L4035.663 3437.185 M 4037.093 3441.405L4037.303 3441.815 L4037.913 3442.425 L4033.623 3442.425 " fill="none"  stroke-width="0.6" c_note="note_pre" /></g><g c_partid="part_pcbtext" c_etype="" c_origin="4075.916,3408.799" c_rotation="90" c_mirror="0" id="gge137" locked="0" layerid="3" c_shapetype="group" display="none"><path c_fontsize="4.5" c_fontfamily="" c_text="50k" d="M 4071.377 3406.345L4071.377 3408.385 L4073.217 3408.595 L4073.007 3408.385 L4072.807 3407.775 L4072.807 3407.165 L4073.007 3406.545 L4073.417 3406.135 L4074.037 3405.935 L4074.447 3405.935 L4075.057 3406.135 L4075.467 3406.545 L4075.667 3407.165 L4075.667 3407.775 L4075.467 3408.385 L4075.257 3408.595 L4074.857 3408.795 M 4071.377 3403.355L4071.577 3403.975 L4072.197 3404.385 L4073.217 3404.585 L4073.827 3404.585 L4074.857 3404.385 L4075.467 3403.975 L4075.667 3403.355 L4075.667 3402.945 L4075.467 3402.335 L4074.857 3401.925 L4073.827 3401.725 L4073.217 3401.725 L4072.197 3401.925 L4071.577 3402.335 L4071.377 3402.945 L4071.377 3403.355 M 4071.377 3400.375L4075.667 3400.375 M 4072.807 3398.325L4074.857 3400.375 M 4074.037 3399.555L4075.667 3398.125 " fill="none"  stroke-width="0.6" c_note="note_name" /></g><g c_partid="part_pcbtext" c_etype="" c_origin="4055.626,3410.811" c_rotation="0" c_mirror="0" id="gge139" locked="0" layerid="3" c_shapetype="group" ><path c_fontsize="4.5" c_fontfamily="" c_text="R3" d="M 4055.63 3406.27L4055.63 3410.57 M 4055.63 3406.27L4057.47 3406.27 L4058.08 3406.47 L4058.29 3406.68 L4058.49 3407.09 L4058.49 3407.5 L4058.29 3407.91 L4058.08 3408.11 L4057.47 3408.32 L4055.63 3408.32 M 4057.06 3408.32L4058.49 3410.57 M 4060.25 3406.27L4062.5 3406.27 L4061.27 3407.91 L4061.89 3407.91 L4062.29 3408.11 L4062.5 3408.32 L4062.7 3408.93 L4062.7 3409.34 L4062.5 3409.95 L4062.09 3410.36 L4061.48 3410.57 L4060.86 3410.57 L4060.25 3410.36 L4060.04 3410.16 L4059.84 3409.75 " fill="none"  stroke-width="0.6" c_note="note_pre" /></g><g c_partid="part_pcbtext" c_etype="" c_origin="4141.916,3452.908" c_rotation="90" c_mirror="0" id="gge113" locked="0" layerid="3" c_shapetype="group" display="none"><path c_fontsize="4.5" c_fontfamily="" c_text="500" d="M 4137.378 3450.454L4137.378 3452.494 L4139.218 3452.704 L4139.008 3452.494 L4138.808 3451.884 L4138.808 3451.274 L4139.008 3450.654 L4139.418 3450.244 L4140.038 3450.044 L4140.448 3450.044 L4141.058 3450.244 L4141.468 3450.654 L4141.668 3451.274 L4141.668 3451.884 L4141.468 3452.494 L4141.258 3452.704 L4140.848 3452.904 M 4137.378 3447.464L4137.578 3448.084 L4138.198 3448.494 L4139.218 3448.694 L4139.828 3448.694 L4140.848 3448.494 L4141.468 3448.084 L4141.668 3447.464 L4141.668 3447.054 L4141.468 3446.444 L4140.848 3446.034 L4139.828 3445.834 L4139.218 3445.834 L4138.198 3446.034 L4137.578 3446.444 L4137.378 3447.054 L4137.378 3447.464 M 4137.378 3443.254L4137.578 3443.864 L4138.198 3444.274 L4139.218 3444.484 L4139.828 3444.484 L4140.848 3444.274 L4141.468 3443.864 L4141.668 3443.254 L4141.668 3442.844 L4141.468 3442.234 L4140.848 3441.824 L4139.828 3441.614 L4139.218 3441.614 L4138.198 3441.824 L4137.578 3442.234 L4137.378 3442.844 L4137.378 3443.254 " fill="none"  stroke-width="0.6" c_note="note_name" /></g><g c_partid="part_pcbtext" c_etype="" c_origin="4131.626,3443.811" c_rotation="0" c_mirror="0" id="gge115" locked="0" layerid="3" c_shapetype="group" ><path c_fontsize="4.5" c_fontfamily="" c_text="R4" d="M 4131.63 3439.27L4131.63 3443.57 M 4131.63 3439.27L4133.47 3439.27 L4134.08 3439.47 L4134.29 3439.68 L4134.49 3440.09 L4134.49 3440.5 L4134.29 3440.91 L4134.08 3441.11 L4133.47 3441.32 L4131.63 3441.32 M 4133.06 3441.32L4134.49 3443.57 M 4137.89 3439.27L4135.84 3442.13 L4138.91 3442.13 M 4137.89 3439.27L4137.89 3443.57 " fill="none"  stroke-width="0.6" c_note="note_pre" /></g><g c_partid="part_pcbtext" c_etype="" c_origin="4070.433,3423.204" c_rotation="90" c_mirror="0" id="gge3" locked="0" layerid="3" c_shapetype="group" display="none"><path c_fontsize="4.5" c_fontfamily="" c_text="LED-0603_R" d="M 4065.8931 3423.2034 L 4070.1831 3423.2034 M 4070.1831 3423.2034 L 4070.1831 3420.7534 M 4065.8931 3419.4034 L 4070.1831 3419.4034 M 4065.8931 3419.4034 L 4065.8931 3416.7434 M 4067.9331 3419.4034 L 4067.9331 3417.7634 M 4070.1831 3419.4034 L 4070.1831 3416.7434 M 4065.8931 3415.3934 L 4070.1831 3415.3934 M 4065.8931 3415.3934 L 4065.8931 3413.9534 L 4066.0931 3413.3434 L 4066.5031 3412.9334 L 4066.9131 3412.7334 L 4067.5331 3412.5234 L 4068.5531 3412.5234 L 4069.1631 3412.7334 L 4069.5731 3412.9334 L 4069.9831 3413.3434 L 4070.1831 3413.9534 L 4070.1831 3415.3934 M 4068.3431 3411.1734 L 4068.3431 3407.4934 M 4065.8931 3404.9134 L 4066.0931 3405.5334 L 4066.7131 3405.9434 L 4067.7331 3406.1434 L 4068.3431 3406.1434 L 4069.3731 3405.9434 L 4069.9831 3405.5334 L 4070.1831 3404.9134 L 4070.1831 3404.5034 L 4069.9831 3403.8934 L 4069.3731 3403.4834 L 4068.3431 3403.2834 L 4067.7331 3403.2834 L 4066.7131 3403.4834 L 4066.0931 3403.8934 L 4065.8931 3404.5034 L 4065.8931 3404.9134 M 4066.5031 3399.4734 L 4066.0931 3399.6834 L 4065.8931 3400.2934 L 4065.8931 3400.7034 L 4066.0931 3401.3134 L 4066.7131 3401.7234 L 4067.7331 3401.9334 L 4068.7531 3401.9334 L 4069.5731 3401.7234 L 4069.9831 3401.3134 L 4070.1831 3400.7034 L 4070.1831 3400.5034 L 4069.9831 3399.8834 L 4069.5731 3399.4734 L 4068.9631 3399.2734 L 4068.7531 3399.2734 L 4068.1431 3399.4734 L 4067.7331 3399.8834 L 4067.5331 3400.5034 L 4067.5331 3400.7034 L 4067.7331 3401.3134 L 4068.1431 3401.7234 L 4068.7531 3401.9334 M 4065.8931 3396.6934 L 4066.0931 3397.3034 L 4066.7131 3397.7134 L 4067.7331 3397.9234 L 4068.3431 3397.9234 L 4069.3731 3397.7134 L 4069.9831 3397.3034 L 4070.1831 3396.6934 L 4070.1831 3396.2834 L 4069.9831 3395.6734 L 4069.3731 3395.2634 L 4068.3431 3395.0534 L 4067.7331 3395.0534 L 4066.7131 3395.2634 L 4066.0931 3395.6734 L 4065.8931 3396.2834 L 4065.8931 3396.6934 M 4065.8931 3393.3034 L 4065.8931 3391.0534 L 4067.5331 3392.2734 L 4067.5331 3391.6634 L 4067.7331 3391.2534 L 4067.9331 3391.0534 L 4068.5531 3390.8434 L 4068.9631 3390.8434 L 4069.5731 3391.0534 L 4069.9831 3391.4534 L 4070.1831 3392.0734 L 4070.1831 3392.6834 L 4069.9831 3393.3034 L 4069.7831 3393.5034 L 4069.3731 3393.7034 M 4071.6231 3389.4934 L 4071.6231 3385.8134 M 4065.8931 3384.4634 L 4070.1831 3384.4634 M 4065.8931 3384.4634 L 4065.8931 3382.6234 L 4066.0931 3382.0034 L 4066.3031 3381.8034 L 4066.7131 3381.6034 L 4067.1231 3381.6034 L 4067.5331 3381.8034 L 4067.7331 3382.0034 L 4067.9331 3382.6234 L 4067.9331 3384.4634 M 4067.9331 3383.0334 L 4070.1831 3381.6034" fill="none"  stroke-width="0.6" c_note="note_name" /></g><g c_partid="part_pcbtext" c_etype="" c_origin="4062.626,3425.811" c_rotation="0" c_mirror="0" id="gge5" locked="0" layerid="3" c_shapetype="group" ><path c_fontsize="4.5" c_fontfamily="" c_text="LED1" d="M 4062.6263 3421.2709 L 4062.6263 3425.5609 M 4062.6263 3425.5609 L 4065.0763 3425.5609 M 4066.4263 3421.2709 L 4066.4263 3425.5609 M 4066.4263 3421.2709 L 4069.0863 3421.2709 M 4066.4263 3423.3109 L 4068.0663 3423.3109 M 4066.4263 3425.5609 L 4069.0863 3425.5609 M 4070.4363 3421.2709 L 4070.4363 3425.5609 M 4070.4363 3421.2709 L 4071.8763 3421.2709 L 4072.4863 3421.4709 L 4072.8963 3421.8809 L 4073.0963 3422.2909 L 4073.3063 3422.9109 L 4073.3063 3423.9309 L 4073.0963 3424.5409 L 4072.8963 3424.9509 L 4072.4863 3425.3609 L 4071.8763 3425.5609 L 4070.4363 3425.5609 M 4074.6563 3422.0909 L 4075.0663 3421.8809 L 4075.6763 3421.2709 L 4075.6763 3425.5609" fill="none"  stroke-width="0.6" c_note="note_pre" /></g><g c_partid="part_pcbtext" c_etype="" c_origin="4113.933,3423.204" c_rotation="90" c_mirror="0" id="gge25" locked="0" layerid="3" c_shapetype="group" display="none"><path c_fontsize="4.5" c_fontfamily="" c_text="LED-0603_R" d="M 4109.3931 3423.2039 L 4113.6831 3423.2039 M 4113.6831 3423.2039 L 4113.6831 3420.7539 M 4109.3931 3419.4039 L 4113.6831 3419.4039 M 4109.3931 3419.4039 L 4109.3931 3416.7439 M 4111.4331 3419.4039 L 4111.4331 3417.7639 M 4113.6831 3419.4039 L 4113.6831 3416.7439 M 4109.3931 3415.3939 L 4113.6831 3415.3939 M 4109.3931 3415.3939 L 4109.3931 3413.9539 L 4109.5931 3413.3439 L 4110.0031 3412.9339 L 4110.4131 3412.7339 L 4111.0331 3412.5239 L 4112.0531 3412.5239 L 4112.6631 3412.7339 L 4113.0731 3412.9339 L 4113.4831 3413.3439 L 4113.6831 3413.9539 L 4113.6831 3415.3939 M 4111.8431 3411.1739 L 4111.8431 3407.4939 M 4109.3931 3404.9139 L 4109.5931 3405.5339 L 4110.2131 3405.9439 L 4111.2331 3406.1439 L 4111.8431 3406.1439 L 4112.8731 3405.9439 L 4113.4831 3405.5339 L 4113.6831 3404.9139 L 4113.6831 3404.5039 L 4113.4831 3403.8939 L 4112.8731 3403.4839 L 4111.8431 3403.2839 L 4111.2331 3403.2839 L 4110.2131 3403.4839 L 4109.5931 3403.8939 L 4109.3931 3404.5039 L 4109.3931 3404.9139 M 4110.0031 3399.4739 L 4109.5931 3399.6839 L 4109.3931 3400.2939 L 4109.3931 3400.7039 L 4109.5931 3401.3139 L 4110.2131 3401.7239 L 4111.2331 3401.9339 L 4112.2531 3401.9339 L 4113.0731 3401.7239 L 4113.4831 3401.3139 L 4113.6831 3400.7039 L 4113.6831 3400.5039 L 4113.4831 3399.8839 L 4113.0731 3399.4739 L 4112.4631 3399.2739 L 4112.2531 3399.2739 L 4111.6431 3399.4739 L 4111.2331 3399.8839 L 4111.0331 3400.5039 L 4111.0331 3400.7039 L 4111.2331 3401.3139 L 4111.6431 3401.7239 L 4112.2531 3401.9339 M 4109.3931 3396.6939 L 4109.5931 3397.3039 L 4110.2131 3397.7139 L 4111.2331 3397.9239 L 4111.8431 3397.9239 L 4112.8731 3397.7139 L 4113.4831 3397.3039 L 4113.6831 3396.6939 L 4113.6831 3396.2839 L 4113.4831 3395.6739 L 4112.8731 3395.2639 L 4111.8431 3395.0539 L 4111.2331 3395.0539 L 4110.2131 3395.2639 L 4109.5931 3395.6739 L 4109.3931 3396.2839 L 4109.3931 3396.6939 M 4109.3931 3393.3039 L 4109.3931 3391.0539 L 4111.0331 3392.2739 L 4111.0331 3391.6639 L 4111.2331 3391.2539 L 4111.4331 3391.0539 L 4112.0531 3390.8439 L 4112.4631 3390.8439 L 4113.0731 3391.0539 L 4113.4831 3391.4539 L 4113.6831 3392.0739 L 4113.6831 3392.6839 L 4113.4831 3393.3039 L 4113.2831 3393.5039 L 4112.8731 3393.7039 M 4115.1231 3389.4939 L 4115.1231 3385.8139 M 4109.3931 3384.4639 L 4113.6831 3384.4639 M 4109.3931 3384.4639 L 4109.3931 3382.6239 L 4109.5931 3382.0039 L 4109.8031 3381.8039 L 4110.2131 3381.6039 L 4110.6231 3381.6039 L 4111.0331 3381.8039 L 4111.2331 3382.0039 L 4111.4331 3382.6239 L 4111.4331 3384.4639 M 4111.4331 3383.0339 L 4113.6831 3381.6039" fill="none"  stroke-width="0.6" c_note="note_name" /></g><g c_partid="part_pcbtext" c_etype="" c_origin="4131.126,3425.311" c_rotation="0" c_mirror="0" id="gge27" locked="0" layerid="3" c_shapetype="group" ><path c_fontsize="4.5" c_fontfamily="" c_text="LED2" d="M 4131.1263 3420.7709 L 4131.1263 3425.0609 M 4131.1263 3425.0609 L 4133.5763 3425.0609 M 4134.9263 3420.7709 L 4134.9263 3425.0609 M 4134.9263 3420.7709 L 4137.5863 3420.7709 M 4134.9263 3422.8109 L 4136.5663 3422.8109 M 4134.9263 3425.0609 L 4137.5863 3425.0609 M 4138.9363 3420.7709 L 4138.9363 3425.0609 M 4138.9363 3420.7709 L 4140.3763 3420.7709 L 4140.9863 3420.9709 L 4141.3963 3421.3809 L 4141.5963 3421.7909 L 4141.8063 3422.4109 L 4141.8063 3423.4309 L 4141.5963 3424.0409 L 4141.3963 3424.4509 L 4140.9863 3424.8609 L 4140.3763 3425.0609 L 4138.9363 3425.0609 M 4143.3563 3421.7909 L 4143.3563 3421.5909 L 4143.5663 3421.1809 L 4143.7663 3420.9709 L 4144.1763 3420.7709 L 4144.9963 3420.7709 L 4145.4063 3420.9709 L 4145.6063 3421.1809 L 4145.8163 3421.5909 L 4145.8163 3422.0009 L 4145.6063 3422.4109 L 4145.1963 3423.0209 L 4143.1563 3425.0609 L 4146.0163 3425.0609" fill="none"  stroke-width="0.6" c_note="note_pre" /></g><g c_partid="part_pcbtext" c_etype="" c_origin="4086.638,3429.602" c_rotation="0" c_mirror="0" id="gge89" locked="0" layerid="3" c_shapetype="group" display="none"><path c_fontsize="4.5" c_fontfamily="" c_text="50k" d="M 4089.0888 3425.0612 L 4087.0488 3425.0612 L 4086.8388 3426.9012 L 4087.0488 3426.7012 L 4087.6588 3426.4912 L 4088.2788 3426.4912 L 4088.8888 3426.7012 L 4089.2988 3427.1012 L 4089.4988 3427.7212 L 4089.4988 3428.1312 L 4089.2988 3428.7412 L 4088.8888 3429.1512 L 4088.2788 3429.3512 L 4087.6588 3429.3512 L 4087.0488 3429.1512 L 4086.8388 3428.9512 L 4086.6388 3428.5412 M 4092.0788 3425.0612 L 4091.4688 3425.2612 L 4091.0588 3425.8812 L 4090.8488 3426.9012 L 4090.8488 3427.5112 L 4091.0588 3428.5412 L 4091.4688 3429.1512 L 4092.0788 3429.3512 L 4092.4888 3429.3512 L 4093.0988 3429.1512 L 4093.5088 3428.5412 L 4093.7188 3427.5112 L 4093.7188 3426.9012 L 4093.5088 3425.8812 L 4093.0988 3425.2612 L 4092.4888 3425.0612 L 4092.0788 3425.0612 M 4095.0688 3425.0612 L 4095.0688 3429.3512 M 4097.1088 3426.4912 L 4095.0688 3428.5412 M 4095.8888 3427.7212 L 4097.3188 3429.3512" fill="none"  stroke-width="0.6" c_note="note_name" /></g><g c_partid="part_pcbtext" c_etype="" c_origin="4106.126,3415.811" c_rotation="0" c_mirror="0" id="gge91" locked="0" layerid="3" c_shapetype="group" ><path c_fontsize="4.5" c_fontfamily="" c_text="R2" d="M 4106.1267 3411.2709 L 4106.1267 3415.5609 M 4106.1267 3411.2709 L 4107.9667 3411.2709 L 4108.5767 3411.4709 L 4108.7867 3411.6809 L 4108.9867 3412.0909 L 4108.9867 3412.5009 L 4108.7867 3412.9109 L 4108.5767 3413.1109 L 4107.9667 3413.3109 L 4106.1267 3413.3109 M 4107.5567 3413.3109 L 4108.9867 3415.5609 M 4110.5467 3412.2909 L 4110.5467 3412.0909 L 4110.7467 3411.6809 L 4110.9567 3411.4709 L 4111.3667 3411.2709 L 4112.1767 3411.2709 L 4112.5867 3411.4709 L 4112.7967 3411.6809 L 4112.9967 3412.0909 L 4112.9967 3412.5009 L 4112.7967 3412.9109 L 4112.3867 3413.5209 L 4110.3367 3415.5609 L 4113.2067 3415.5609" fill="none"  stroke-width="0.6" c_note="note_pre" /></g><g c_partid="part_pcbtext" c_etype="" c_origin="4098.416,3452.908" c_rotation="90" c_mirror="0" id="gge161" locked="0" layerid="3" c_shapetype="group" display="none"><path c_fontsize="4.5" c_fontfamily="" c_text="500" d="M 4093.8766 3450.4578 L 4093.8766 3452.4978 L 4095.7166 3452.7078 L 4095.5166 3452.4978 L 4095.3066 3451.8878 L 4095.3066 3451.2678 L 4095.5166 3450.6578 L 4095.9166 3450.2478 L 4096.5366 3450.0478 L 4096.9466 3450.0478 L 4097.5566 3450.2478 L 4097.9666 3450.6578 L 4098.1666 3451.2678 L 4098.1666 3451.8878 L 4097.9666 3452.4978 L 4097.7666 3452.7078 L 4097.3566 3452.9078 M 4093.8766 3447.4678 L 4094.0766 3448.0778 L 4094.6966 3448.4878 L 4095.7166 3448.6978 L 4096.3266 3448.6978 L 4097.3566 3448.4878 L 4097.9666 3448.0778 L 4098.1666 3447.4678 L 4098.1666 3447.0578 L 4097.9666 3446.4478 L 4097.3566 3446.0378 L 4096.3266 3445.8278 L 4095.7166 3445.8278 L 4094.6966 3446.0378 L 4094.0766 3446.4478 L 4093.8766 3447.0578 L 4093.8766 3447.4678 M 4093.8766 3443.2578 L 4094.0766 3443.8678 L 4094.6966 3444.2778 L 4095.7166 3444.4778 L 4096.3266 3444.4778 L 4097.3566 3444.2778 L 4097.9666 3443.8678 L 4098.1666 3443.2578 L 4098.1666 3442.8478 L 4097.9666 3442.2278 L 4097.3566 3441.8178 L 4096.3266 3441.6178 L 4095.7166 3441.6178 L 4094.6966 3441.8178 L 4094.0766 3442.2278 L 4093.8766 3442.8478 L 4093.8766 3443.2578" fill="none"  stroke-width="0.6" c_note="note_name" /></g><g c_partid="part_pcbtext" c_etype="" c_origin="4070.126,3443.811" c_rotation="0" c_mirror="0" id="gge163" locked="0" layerid="3" c_shapetype="group" ><path c_fontsize="4.5" c_fontfamily="" c_text="R1" d="M 4070.1263 3439.2709 L 4070.1263 3443.5609 M 4070.1263 3439.2709 L 4071.9663 3439.2709 L 4072.5763 3439.4709 L 4072.7863 3439.6809 L 4072.9863 3440.0909 L 4072.9863 3440.5009 L 4072.7863 3440.9109 L 4072.5763 3441.1109 L 4071.9663 3441.3109 L 4070.1263 3441.3109 M 4071.5563 3441.3109 L 4072.9863 3443.5609 M 4074.3363 3440.0909 L 4074.7463 3439.8809 L 4075.3663 3439.2709 L 4075.3663 3443.5609" fill="none"  stroke-width="0.6" c_note="note_pre" /></g><g c_partid="part_pcbtext" c_etype="" c_origin="4145.157,3447.81" c_rotation="90" c_mirror="0" id="gge205" locked="0" layerid="3" c_shapetype="group" display="none"><path c_fontsize="4.5" c_fontfamily="" c_text="2SD1782KT146R" d="M 4141.6366 3447.6095 L 4141.4366 3447.6095 L 4141.0266 3447.3995 L 4140.8166 3447.1995 L 4140.6166 3446.7895 L 4140.6166 3445.9695 L 4140.8166 3445.5595 L 4141.0266 3445.3595 L 4141.4366 3445.1495 L 4141.8466 3445.1495 L 4142.2566 3445.3595 L 4142.8666 3445.7595 L 4144.9066 3447.8095 L 4144.9066 3444.9495 M 4141.2266 3440.7295 L 4140.8166 3441.1395 L 4140.6166 3441.7595 L 4140.6166 3442.5695 L 4140.8166 3443.1895 L 4141.2266 3443.5995 L 4141.6366 3443.5995 L 4142.0466 3443.3895 L 4142.2566 3443.1895 L 4142.4566 3442.7795 L 4142.8666 3441.5495 L 4143.0666 3441.1395 L 4143.2766 3440.9395 L 4143.6866 3440.7295 L 4144.2966 3440.7295 L 4144.7066 3441.1395 L 4144.9066 3441.7595 L 4144.9066 3442.5695 L 4144.7066 3443.1895 L 4144.2966 3443.5995 M 4140.6166 3439.3795 L 4144.9066 3439.3795 M 4140.6166 3439.3795 L 4140.6166 3437.9495 L 4140.8166 3437.3395 L 4141.2266 3436.9295 L 4141.6366 3436.7195 L 4142.2566 3436.5195 L 4143.2766 3436.5195 L 4143.8866 3436.7195 L 4144.2966 3436.9295 L 4144.7066 3437.3395 L 4144.9066 3437.9495 L 4144.9066 3439.3795 M 4141.4366 3435.1695 L 4141.2266 3434.7595 L 4140.6166 3434.1495 L 4144.9066 3434.1495 M 4140.6166 3429.9295 L 4144.9066 3431.9795 M 4140.6166 3432.7995 L 4140.6166 3429.9295 M 4140.6166 3427.5595 L 4140.8166 3428.1695 L 4141.2266 3428.3795 L 4141.6366 3428.3795 L 4142.0466 3428.1695 L 4142.2566 3427.7595 L 4142.4566 3426.9495 L 4142.6566 3426.3295 L 4143.0666 3425.9195 L 4143.4766 3425.7195 L 4144.0966 3425.7195 L 4144.5066 3425.9195 L 4144.7066 3426.1295 L 4144.9066 3426.7395 L 4144.9066 3427.5595 L 4144.7066 3428.1695 L 4144.5066 3428.3795 L 4144.0966 3428.5795 L 4143.4766 3428.5795 L 4143.0666 3428.3795 L 4142.6566 3427.9695 L 4142.4566 3427.3595 L 4142.2566 3426.5395 L 4142.0466 3426.1295 L 4141.6366 3425.9195 L 4141.2266 3425.9195 L 4140.8166 3426.1295 L 4140.6166 3426.7395 L 4140.6166 3427.5595 M 4141.6366 3424.1595 L 4141.4366 3424.1595 L 4141.0266 3423.9595 L 4140.8166 3423.7595 L 4140.6166 3423.3495 L 4140.6166 3422.5295 L 4140.8166 3422.1195 L 4141.0266 3421.9095 L 4141.4366 3421.7095 L 4141.8466 3421.7095 L 4142.2566 3421.9095 L 4142.8666 3422.3195 L 4144.9066 3424.3695 L 4144.9066 3421.5095 M 4140.6166 3420.1595 L 4144.9066 3420.1595 M 4140.6166 3417.2895 L 4143.4766 3420.1595 M 4142.4566 3419.1295 L 4144.9066 3417.2895 M 4140.6166 3414.5095 L 4144.9066 3414.5095 M 4140.6166 3415.9395 L 4140.6166 3413.0795 M 4141.4366 3411.7295 L 4141.2266 3411.3195 L 4140.6166 3410.7095 L 4144.9066 3410.7095 M 4140.6166 3407.3095 L 4143.4766 3409.3595 L 4143.4766 3406.2895 M 4140.6166 3407.3095 L 4144.9066 3407.3095 M 4141.2266 3402.4795 L 4140.8166 3402.6895 L 4140.6166 3403.2995 L 4140.6166 3403.7095 L 4140.8166 3404.3195 L 4141.4366 3404.7295 L 4142.4566 3404.9395 L 4143.4766 3404.9395 L 4144.2966 3404.7295 L 4144.7066 3404.3195 L 4144.9066 3403.7095 L 4144.9066 3403.5095 L 4144.7066 3402.8895 L 4144.2966 3402.4795 L 4143.6866 3402.2795 L 4143.4766 3402.2795 L 4142.8666 3402.4795 L 4142.4566 3402.8895 L 4142.2566 3403.5095 L 4142.2566 3403.7095 L 4142.4566 3404.3195 L 4142.8666 3404.7295 L 4143.4766 3404.9395 M 4140.6166 3400.9295 L 4144.9066 3400.9295 M 4140.6166 3400.9295 L 4140.6166 3399.0895 L 4140.8166 3398.4695 L 4141.0266 3398.2695 L 4141.4366 3398.0595 L 4141.8466 3398.0595 L 4142.2566 3398.2695 L 4142.4566 3398.4695 L 4142.6566 3399.0895 L 4142.6566 3400.9295 M 4142.6566 3399.4995 L 4144.9066 3398.0595" fill="none"  stroke-width="0.6" c_note="note_name" /></g><g c_partid="part_pcbtext" c_etype="" c_origin="4133.626,3394.811" c_rotation="270" c_mirror="0" id="gge207" locked="0" layerid="3" c_shapetype="group" ><path c_fontsize="4.5" c_fontfamily="" c_text="Q1" d="M 4138.1663 3396.0409 L 4137.9663 3395.6309 L 4137.5563 3395.2209 L 4137.1463 3395.0109 L 4136.5263 3394.8109 L 4135.5063 3394.8109 L 4134.8963 3395.0109 L 4134.4863 3395.2209 L 4134.0763 3395.6309 L 4133.8763 3396.0409 L 4133.8763 3396.8609 L 4134.0763 3397.2609 L 4134.4863 3397.6709 L 4134.8963 3397.8809 L 4135.5063 3398.0809 L 4136.5263 3398.0809 L 4137.1463 3397.8809 L 4137.5563 3397.6709 L 4137.9663 3397.2609 L 4138.1663 3396.8609 L 4138.1663 3396.0409 M 4134.6863 3396.6509 L 4133.4663 3397.8809 M 4137.3463 3399.4309 L 4137.5563 3399.8409 L 4138.1663 3400.4609 L 4133.8763 3400.4609" fill="none"  stroke-width="0.6" c_note="note_pre" /></g><g c_partid="part_pcbtext" c_etype="" c_origin="4027.627,3418.341" c_rotation="0" c_mirror="0" id="gge235" locked="0" layerid="3" c_shapetype="group" display="none"><path c_fontsize="4.5" c_fontfamily="" c_text="2SD1782KT146R" d="M 4027.8274 3414.8212 L 4027.8274 3414.6212 L 4028.0374 3414.2112 L 4028.2374 3414.0012 L 4028.6474 3413.8012 L 4029.4674 3413.8012 L 4029.8774 3414.0012 L 4030.0774 3414.2112 L 4030.2874 3414.6212 L 4030.2874 3415.0312 L 4030.0774 3415.4412 L 4029.6774 3416.0512 L 4027.6274 3418.0912 L 4030.4874 3418.0912 M 4034.7074 3414.4112 L 4034.2974 3414.0012 L 4033.6774 3413.8012 L 4032.8674 3413.8012 L 4032.2474 3414.0012 L 4031.8374 3414.4112 L 4031.8374 3414.8212 L 4032.0474 3415.2312 L 4032.2474 3415.4412 L 4032.6574 3415.6412 L 4033.8874 3416.0512 L 4034.2974 3416.2512 L 4034.4974 3416.4612 L 4034.7074 3416.8712 L 4034.7074 3417.4812 L 4034.2974 3417.8912 L 4033.6774 3418.0912 L 4032.8674 3418.0912 L 4032.2474 3417.8912 L 4031.8374 3417.4812 M 4036.0574 3413.8012 L 4036.0574 3418.0912 M 4036.0574 3413.8012 L 4037.4874 3413.8012 L 4038.0974 3414.0012 L 4038.5074 3414.4112 L 4038.7174 3414.8212 L 4038.9174 3415.4412 L 4038.9174 3416.4612 L 4038.7174 3417.0712 L 4038.5074 3417.4812 L 4038.0974 3417.8912 L 4037.4874 3418.0912 L 4036.0574 3418.0912 M 4040.2674 3414.6212 L 4040.6774 3414.4112 L 4041.2874 3413.8012 L 4041.2874 3418.0912 M 4045.5074 3413.8012 L 4043.4574 3418.0912 M 4042.6374 3413.8012 L 4045.5074 3413.8012 M 4047.8774 3413.8012 L 4047.2674 3414.0012 L 4047.0574 3414.4112 L 4047.0574 3414.8212 L 4047.2674 3415.2312 L 4047.6774 3415.4412 L 4048.4874 3415.6412 L 4049.1074 3415.8412 L 4049.5174 3416.2512 L 4049.7174 3416.6612 L 4049.7174 3417.2812 L 4049.5174 3417.6912 L 4049.3074 3417.8912 L 4048.6974 3418.0912 L 4047.8774 3418.0912 L 4047.2674 3417.8912 L 4047.0574 3417.6912 L 4046.8574 3417.2812 L 4046.8574 3416.6612 L 4047.0574 3416.2512 L 4047.4674 3415.8412 L 4048.0774 3415.6412 L 4048.8974 3415.4412 L 4049.3074 3415.2312 L 4049.5174 3414.8212 L 4049.5174 3414.4112 L 4049.3074 3414.0012 L 4048.6974 3413.8012 L 4047.8774 3413.8012 M 4051.2774 3414.8212 L 4051.2774 3414.6212 L 4051.4774 3414.2112 L 4051.6774 3414.0012 L 4052.0874 3413.8012 L 4052.9074 3413.8012 L 4053.3174 3414.0012 L 4053.5274 3414.2112 L 4053.7274 3414.6212 L 4053.7274 3415.0312 L 4053.5274 3415.4412 L 4053.1174 3416.0512 L 4051.0674 3418.0912 L 4053.9274 3418.0912 M 4055.2774 3413.8012 L 4055.2774 3418.0912 M 4058.1474 3413.8012 L 4055.2774 3416.6612 M 4056.3074 3415.6412 L 4058.1474 3418.0912 M 4060.9274 3413.8012 L 4060.9274 3418.0912 M 4059.4974 3413.8012 L 4062.3574 3413.8012 M 4063.7074 3414.6212 L 4064.1174 3414.4112 L 4064.7274 3413.8012 L 4064.7274 3418.0912 M 4068.1274 3413.8012 L 4066.0774 3416.6612 L 4069.1474 3416.6612 M 4068.1274 3413.8012 L 4068.1274 3418.0912 M 4072.9574 3414.4112 L 4072.7474 3414.0012 L 4072.1374 3413.8012 L 4071.7274 3413.8012 L 4071.1174 3414.0012 L 4070.7074 3414.6212 L 4070.4974 3415.6412 L 4070.4974 3416.6612 L 4070.7074 3417.4812 L 4071.1174 3417.8912 L 4071.7274 3418.0912 L 4071.9274 3418.0912 L 4072.5474 3417.8912 L 4072.9574 3417.4812 L 4073.1574 3416.8712 L 4073.1574 3416.6612 L 4072.9574 3416.0512 L 4072.5474 3415.6412 L 4071.9274 3415.4412 L 4071.7274 3415.4412 L 4071.1174 3415.6412 L 4070.7074 3416.0512 L 4070.4974 3416.6612 M 4074.5074 3413.8012 L 4074.5074 3418.0912 M 4074.5074 3413.8012 L 4076.3474 3413.8012 L 4076.9674 3414.0012 L 4077.1674 3414.2112 L 4077.3774 3414.6212 L 4077.3774 3415.0312 L 4077.1674 3415.4412 L 4076.9674 3415.6412 L 4076.3474 3415.8412 L 4074.5074 3415.8412 M 4075.9374 3415.8412 L 4077.3774 3418.0912" fill="none"  stroke-width="0.6" c_note="note_name" /></g><g c_partid="part_pcbtext" c_etype="" c_origin="4072.626,3389.811" c_rotation="0" c_mirror="0" id="gge237" locked="0" layerid="3" c_shapetype="group" ><path c_fontsize="4.5" c_fontfamily="" c_text="Q2" d="M 4073.8563 3385.2709 L 4073.4463 3385.4709 L 4073.0363 3385.8809 L 4072.8263 3386.2909 L 4072.6263 3386.9109 L 4072.6263 3387.9309 L 4072.8263 3388.5409 L 4073.0363 3388.9509 L 4073.4463 3389.3609 L 4073.8563 3389.5609 L 4074.6763 3389.5609 L 4075.0763 3389.3609 L 4075.4863 3388.9509 L 4075.6963 3388.5409 L 4075.8963 3387.9309 L 4075.8963 3386.9109 L 4075.6963 3386.2909 L 4075.4863 3385.8809 L 4075.0763 3385.4709 L 4074.6763 3385.2709 L 4073.8563 3385.2709 M 4074.4663 3388.7509 L 4075.6963 3389.9709 M 4077.4563 3386.2909 L 4077.4563 3386.0909 L 4077.6563 3385.6809 L 4077.8663 3385.4709 L 4078.2763 3385.2709 L 4079.0863 3385.2709 L 4079.4963 3385.4709 L 4079.7063 3385.6809 L 4079.9063 3386.0909 L 4079.9063 3386.5009 L 4079.7063 3386.9109 L 4079.2963 3387.5209 L 4077.2463 3389.5609 L 4080.1163 3389.5609" fill="none"  stroke-width="0.6" c_note="note_pre" /></g><g c_partid="part_pcbtext" c_etype="" c_origin="4096.583,3391.811" c_rotation="0" c_mirror="0" id="gge283" locked="0" layerid="3" c_shapetype="group" display="none"><path c_fontsize="4.5" c_fontfamily="" c_text="10u" d="M 4096.5828 3388.0909 L 4096.9928 3387.8809 L 4097.6028 3387.2709 L 4097.6028 3391.5609 M 4100.1828 3387.2709 L 4099.5728 3387.4709 L 4099.1628 3388.0909 L 4098.9528 3389.1109 L 4098.9528 3389.7209 L 4099.1628 3390.7509 L 4099.5728 3391.3609 L 4100.1828 3391.5609 L 4100.5928 3391.5609 L 4101.2028 3391.3609 L 4101.6128 3390.7509 L 4101.8228 3389.7209 L 4101.8228 3389.1109 L 4101.6128 3388.0909 L 4101.2028 3387.4709 L 4100.5928 3387.2709 L 4100.1828 3387.2709 M 4103.1728 3388.7009 L 4103.1728 3390.7509 L 4103.3728 3391.3609 L 4103.7828 3391.5609 L 4104.3928 3391.5609 L 4104.8028 3391.3609 L 4105.4228 3390.7509 M 4105.4228 3388.7009 L 4105.4228 3391.5609" fill="none"  stroke-width="0.6" c_note="note_name" /></g><g c_partid="part_pcbtext" c_etype="" c_origin="4106.126,3405.311" c_rotation="0" c_mirror="0" id="gge285" locked="0" layerid="3" c_shapetype="group" ><path c_fontsize="4.5" c_fontfamily="" c_text="C1" d="M 4109.1958 3401.7909 L 4108.9858 3401.3809 L 4108.5758 3400.9709 L 4108.1758 3400.7709 L 4107.3558 3400.7709 L 4106.9458 3400.9709 L 4106.5358 3401.3809 L 4106.3258 3401.7909 L 4106.1258 3402.4109 L 4106.1258 3403.4309 L 4106.3258 3404.0409 L 4106.5358 3404.4509 L 4106.9458 3404.8609 L 4107.3558 3405.0609 L 4108.1758 3405.0609 L 4108.5758 3404.8609 L 4108.9858 3404.4509 L 4109.1958 3404.0409 M 4110.5458 3401.5909 L 4110.9558 3401.3809 L 4111.5658 3400.7709 L 4111.5658 3405.0609" fill="none"  stroke-width="0.6" c_note="note_pre" /></g><g c_partid="part_pcbtext" c_etype="" c_origin="4087.83,3408.601" c_rotation="0" c_mirror="0" id="gge315" locked="0" layerid="3" c_shapetype="group" display="none"><path c_fontsize="4.5" c_fontfamily="" c_text="10u" d="M 4087.8299 3404.8809 L 4088.2399 3404.6709 L 4088.8499 3404.0609 L 4088.8499 3408.3509 M 4091.4299 3404.0609 L 4090.8199 3404.2609 L 4090.4099 3404.8809 L 4090.1999 3405.9009 L 4090.1999 3406.5109 L 4090.4099 3407.5409 L 4090.8199 3408.1509 L 4091.4299 3408.3509 L 4091.8399 3408.3509 L 4092.4499 3408.1509 L 4092.8599 3407.5409 L 4093.0699 3406.5109 L 4093.0699 3405.9009 L 4092.8599 3404.8809 L 4092.4499 3404.2609 L 4091.8399 3404.0609 L 4091.4299 3404.0609 M 4094.4199 3405.4909 L 4094.4199 3407.5409 L 4094.6199 3408.1509 L 4095.0299 3408.3509 L 4095.6399 3408.3509 L 4096.0499 3408.1509 L 4096.6699 3407.5409 M 4096.6699 3405.4909 L 4096.6699 3408.3509" fill="none"  stroke-width="0.6" c_note="note_name" /></g><g c_partid="part_pcbtext" c_etype="" c_origin="4105.626,3394.811" c_rotation="0" c_mirror="0" id="gge317" locked="0" layerid="3" c_shapetype="group" ><path c_fontsize="4.5" c_fontfamily="" c_text="C2" d="M 4108.6963 3391.2909 L 4108.4863 3390.8809 L 4108.0763 3390.4709 L 4107.6763 3390.2709 L 4106.8563 3390.2709 L 4106.4463 3390.4709 L 4106.0363 3390.8809 L 4105.8263 3391.2909 L 4105.6263 3391.9109 L 4105.6263 3392.9309 L 4105.8263 3393.5409 L 4106.0363 3393.9509 L 4106.4463 3394.3609 L 4106.8563 3394.5609 L 4107.6763 3394.5609 L 4108.0763 3394.3609 L 4108.4863 3393.9509 L 4108.6963 3393.5409 M 4110.2463 3391.2909 L 4110.2463 3391.0909 L 4110.4563 3390.6809 L 4110.6563 3390.4709 L 4111.0663 3390.2709 L 4111.8863 3390.2709 L 4112.2963 3390.4709 L 4112.4963 3390.6809 L 4112.7063 3391.0909 L 4112.7063 3391.5009 L 4112.4963 3391.9109 L 4112.0863 3392.5209 L 4110.0463 3394.5609 L 4112.9063 3394.5609" fill="none"  stroke-width="0.6" c_note="note_pre" /></g><path d="M 4090.1302 3400.9486 A 0.7874 0.7874 0 0 1 4090.9176 3400.1612" locked="0"  fill="none" stroke-width="1" c_helper_type="arc2" net="" layerid="3" id="gge297" /><path d="M 4090.1302 3405.6731 A 0.7875 0.7875 0 0 0 4090.9177 3406.4606" locked="0"  fill="none" stroke-width="1" c_helper_type="arc2" net="" layerid="3" id="gge298" /><path d="M 4103.1224 3400.9486 A 0.7874 0.7874 0 0 0 4102.335 3400.1612" locked="0"  fill="none" stroke-width="1" c_helper_type="arc2" net="" layerid="3" id="gge299" /><path d="M 4103.1224 3405.6731 A 0.7875 0.7875 0 0 1 4102.3349 3406.4606" locked="0"  fill="none" stroke-width="1" c_helper_type="arc2" net="" layerid="3" id="gge300" /><path d="M 4103.1224 3394.6732 A 0.7874 0.7874 0 0 1 4102.335 3395.4606" locked="0"  fill="none" stroke-width="1" c_helper_type="arc2" net="" layerid="3" id="gge329" /><path d="M 4103.1224 3389.9487 A 0.7875 0.7875 0 0 0 4102.3349 3389.1612" locked="0"  fill="none" stroke-width="1" c_helper_type="arc2" net="" layerid="3" id="gge330" /><path d="M 4090.1302 3394.6732 A 0.7874 0.7874 0 0 0 4090.9176 3395.4606" locked="0"  fill="none" stroke-width="1" c_helper_type="arc2" net="" layerid="3" id="gge331" /><path d="M 4090.1302 3389.9487 A 0.7875 0.7875 0 0 1 4090.9177 3389.1612" locked="0"  fill="none" stroke-width="1" c_helper_type="arc2" net="" layerid="3" id="gge332" /><path d="M 4080.709 3423.244 L 4083.5433 3423.2836 L 4082.126 3422.26 Z " stroke-width="0"   net="" type="solid" layerid="3" id="gge10" locked="0" c_teardrop="" c_targetpad="" c_targetwire="" /><path d="M 4124.209 3423.244 L 4127.0433 3423.2836 L 4125.626 3422.26 Z " stroke-width="0"   net="" type="solid" layerid="3" id="gge32" locked="0" c_teardrop="" c_targetpad="" c_targetwire="" /><polyline points="4020.0003 3382.5707 4086.9295 3382.5707 4149.9217 3382.5707 4149.9217 3449.4999 4020.0003 3449.4999 4020.0003 3382.5707" stroke-width="1"  stroke-linecap="round" fill="none" layerid="10" net="" id="gge587" locked="0" /></svg>